<?xml version="1.0" standalone="no"?>
<!DOCTYPE svg PUBLIC "-//W3C//DTD SVG 1.1//EN" "http://www.w3.org/Graphics/SVG/1.1/DTD/svg11.dtd" >
<!--
2013-9-30: Created.
-->
<svg>
<metadata>
Created by iconfont
</metadata>
<defs>

<font id="iconfont" horiz-adv-x="1024" >
  <font-face
    font-family="iconfont"
    font-weight="500"
    font-stretch="normal"
    units-per-em="1024"
    ascent="896"
    descent="-128"
  />
    <missing-glyph />
    
    <glyph glyph-name="x" unicode="x" horiz-adv-x="1001"
d="M281 543q-27 -1 -53 -1h-83q-18 0 -36.5 -6t-32.5 -18.5t-23 -32t-9 -45.5v-76h912v41q0 16 -0.5 30t-0.5 18q0 13 -5 29t-17 29.5t-31.5 22.5t-49.5 9h-133v-97h-438v97zM955 310v-52q0 -23 0.5 -52t0.5 -58t-10.5 -47.5t-26 -30t-33 -16t-31.5 -4.5q-14 -1 -29.5 -0.5
t-29.5 0.5h-32l-45 128h-439l-44 -128h-29h-34q-20 0 -45 1q-25 0 -41 9.5t-25.5 23t-13.5 29.5t-4 30v167h911zM163 247q-12 0 -21 -8.5t-9 -21.5t9 -21.5t21 -8.5q13 0 22 8.5t9 21.5t-9 21.5t-22 8.5zM316 123q-8 -26 -14 -48q-5 -19 -10.5 -37t-7.5 -25t-3 -15t1 -14.5
t9.5 -10.5t21.5 -4h37h67h81h80h64h36q23 0 34 12t2 38q-5 13 -9.5 30.5t-9.5 34.5q-5 19 -11 39h-368zM336 498v228q0 11 2.5 23t10 21.5t20.5 15.5t34 6h188q31 0 51.5 -14.5t20.5 -52.5v-227h-327z" />
    

    
    <glyph glyph-name="ttpodicon" unicode="&#58887;" d="M510.674763 471.284061c-93.883074 0-170.261762-76.330456-170.261762-170.136935 0-93.810572 76.378687-170.138982 170.261762-170.138982s170.261762 76.328409 170.261762 170.138982C680.936524 394.953605 604.557837 471.284061 510.674763 471.284061zM510.674763 191.573545c-60.457421 0-109.654931 49.15349-109.654931 109.573581S450.217342 410.717637 510.674763 410.717637s109.656978-49.15042 109.656978-109.569488S571.132184 191.573545 510.674763 191.573545zM956.476353 342.017976c-1.185038 13.127995-10.714466 23.952528-23.569778 26.821879-69.931588 15.615653-108.798388 35.045167-118.86098 59.473533-10.003238 24.278963 3.714757 65.00348 41.904101 124.535341 7.160374 11.17962 6.22708 25.670659-2.294349 35.815717-16.749156 19.960611-35.347503 38.533618-55.250621 55.243185-10.163904 8.54563-24.680111 9.435906-35.848944 2.305509-47.305338-30.31033-82.387793-45.040822-107.259271-45.040822-24.549123 0-52.868264 14.461363-76.854545 121.933073-2.883798 12.863982-13.745626 22.387893-26.884406 23.572882-26.942736 2.452865-54.819791 2.452865-81.764574 0-13.13878-1.184989-24.013911-10.707876-26.884406-23.572882-23.985257-107.441011-52.319749-121.933073-76.852498-121.933073-24.871478-0.029676-59.953933 14.729469-107.259271 45.040822-11.170879 7.158027-25.702437 6.180769-35.850991-2.305509-19.916421-16.709567-38.501465-35.310204-55.248574-55.243185-8.523475-10.145058-9.456769-24.636097-2.294349-35.815717 38.190367-59.531861 51.907339-100.255355 41.904101-124.535341-10.062592-24.428366-48.932463-43.85788-118.846654-59.473533-12.857359-2.869351-22.386786-13.694907-23.584105-26.794249-1.229042-13.486152-1.938223-27.118638-1.938223-40.899502 0-13.781888 0.709181-27.415396 1.938223-40.902572 1.197319-13.099343 10.726746-23.922852 23.584105-26.794249 69.914191-15.614629 108.783038-35.043121 118.846654-59.471486 10.003238-24.281009-3.714757-65.00348-41.919451-124.536364-7.14707-11.177574-6.213776-25.669636 2.309699-35.81367 16.792136-19.990287 35.37718-38.563294 55.263924-55.243185 10.16595-8.429996 24.664761-9.463536 35.821314-2.27788 47.305338 30.2827 82.387793 45.011146 107.259271 45.011146 24.547076 0 52.881567-14.488992 76.866825-121.933073 2.871518-12.862959 13.745626-22.387893 26.884406-23.568788 13.478532-1.214664 27.094192-1.923816 40.881775-1.923816 13.790653 0 27.403244 0.709151 40.881775 1.923816 13.13878 1.180895 24.000608 10.705829 26.884406 23.568788 23.985257 107.443058 52.321795 121.933073 76.854545 121.933073 24.886828 0 59.969284-14.728446 107.272575-45.011146 11.156552-7.185656 25.65741-6.210445 35.80801 2.27788 19.915398 16.679891 38.516815 35.282574 55.279274 55.243185 8.522452 10.145058 9.454723 24.667819 2.294349 35.81367-38.190367 59.533908-51.907339 100.255355-41.904101 124.536364 10.062592 24.428366 48.930416 43.85788 118.86098 59.471486 12.855312 2.871397 22.384739 13.694907 23.569778 26.823925 1.228019 13.4575 1.936177 27.091008 1.936177 40.872896C958.41253 314.927991 957.703349 328.560476 956.476353 342.017976zM897.525302 287.215836c-79.010741-20.404726-122.409955-48.646953-139.529563-90.168626-17.014203-41.34464-6.317134-91.444689 34.817408-160.705122-5.535296-5.887081-11.260934-11.621688-17.148262-17.154705-48.724723 28.924773-87.343873 42.497906-120.368374 42.497906-78.967761 0-112.114039-74.464969-130.726714-147.157571-9.218329-0.354064-18.567647-0.354064-27.788023 0-18.614721 72.692602-51.758953 147.157571-130.741041 147.157571-33.011197 0-71.630347-13.573133-120.354047-42.497906-5.887328 5.533017-11.615013 11.267625-17.148262 17.154705 41.117145 69.260433 51.832634 119.360482 34.798988 160.705122-17.102211 41.522696-60.500402 69.7639-139.511143 90.198302-0.194436 4.615111-0.283468 9.227152-0.283468 13.901615 0 4.671393 0.090055 9.286504 0.283468 13.897521 79.010741 20.434401 122.409955 48.678676 139.529563 90.200348 17.01625 41.343617 6.317134 91.442642-34.817408 160.703075 5.533249 5.887081 11.260934 11.623735 17.148262 17.154705 48.740073-28.924773 87.34285-42.527582 120.368374-42.497906 78.967761 0 112.111993 74.464969 130.726714 147.161664 9.219352 0.353041 18.569694 0.353041 27.788023 0 18.612674-72.696696 51.758953-147.19134 130.726714-147.161664 33.0245 0 71.643651 13.573133 120.368374 42.497906 5.887328-5.53097 11.612966-11.267625 17.148262-17.154705-41.119192-69.260433-51.831611-119.360482-34.817408-160.703075 17.120631-41.522696 60.518822-69.765947 139.529563-90.170672 0.179086-4.641717 0.281421-9.256828 0.281421-13.928221C897.807746 296.472664 897.704388 291.860622 897.525302 287.215836z"  horiz-adv-x="1024" />

    
    <glyph glyph-name="delete" unicode="&#59037;" d="M972.657609 686.651592C987.158609 686.63161 998.930114 698.428798 998.949999 713.00135 998.969882 727.573903 987.230618 739.40349 972.729617 739.423472L32.457975 740.719194C17.956974 740.739177 6.18547 728.941988 6.165585 714.369436 6.1457 699.796884 17.884965 687.967297 32.385966 687.947314L972.657609 686.651592ZM180.466902-96.356169 180.466902-123.014859 206.993296-122.74074 833.361858-116.267947 859.348284-115.999407 859.348284-89.883377 859.348284 606.602703C859.348284 621.175268 847.59289 632.988668 833.091874 632.988668 818.590859 632.988668 806.835465 621.175268 806.835465 606.602703L806.835465-89.883377 832.82189-63.498805 206.453329-69.971599 232.979723-96.356169 232.979723 613.32995C232.979723 627.902517 221.224329 639.715915 206.723313 639.715915 192.222298 639.715915 180.466902 627.902517 180.466902 613.32995L180.466902-96.356169ZM656.410257 48.920973C656.410257 34.348407 668.165651 22.535008 682.666667 22.535008 697.167682 22.535008 708.923076 34.348407 708.923076 48.920973L708.923076 523.868341C708.923076 538.440909 697.167682 550.254306 682.666667 550.254306 668.165651 550.254306 656.410257 538.440909 656.410257 523.868341L656.410257 48.920973ZM341.333333 48.920973C341.333333 34.348407 353.08873 22.535008 367.589743 22.535008 382.090758 22.535008 393.846155 34.348407 393.846155 48.920973L393.846155 523.868341C393.846155 538.440909 382.090758 550.254306 367.589743 550.254306 353.08873 550.254306 341.333333 538.440909 341.333333 523.868341L341.333333 48.920973ZM498.871795 48.920973C498.871795 34.348407 510.627189 22.535008 525.128205 22.535008 539.62922 22.535008 551.384614 34.348407 551.384614 48.920973L551.384614 523.868341C551.384614 538.440909 539.62922 550.254306 525.128205 550.254306 510.627189 550.254306 498.871795 538.440909 498.871795 523.868341L498.871795 48.920973ZM392.147755 779.278223C392.147755 793.936331 403.758665 805.636493 418.40134 805.636493L622.925796 805.636493C637.408947 805.636493 649.179381 793.8381 649.179381 779.450415L649.179381 724.355125 701.692203 724.355125 701.692203 779.450415C701.692203 823.013393 666.38105 858.408423 622.925796 858.408423L418.40134 858.408423C374.724427 858.408423 339.634933 823.049196 339.634933 779.278223L339.634933 730.689199 392.147755 730.689199 392.147755 779.278223Z"  horiz-adv-x="1024" />

    
    <glyph glyph-name="edit" unicode="&#59038;" d="M34.155089 665.059773 9.17948 665.059773 9.17948 639.796614 9.17948 41.841988C9.17948-27.769568 65.248004-84.289737 134.081773-84.289737L927.938515-84.289737 952.914125-84.289737 952.914125-59.026579 952.914125 424.899439C952.914125 438.851895 941.732164 450.162598 927.938515 450.162598 914.144868 450.162598 902.962906 438.851895 902.962906 424.899439L902.962906-59.026579 927.938515-33.76342 134.081773-33.76342C92.797081-33.76342 59.130699 0.174153 59.130699 41.841988L59.130699 639.796614 34.155089 614.533457 598.93821 614.533457C612.731859 614.533457 623.91382 625.844158 623.91382 639.796614 623.91382 653.749072 612.731859 665.059773 598.93821 665.059773L34.155089 665.059773ZM437.016339 302.496211 431.876019 295.895108 431.668623 287.494786 427.984924 138.290259 427.077935 101.553579 461.312335 113.853545 605.005395 165.480553 611.980762 167.986709 616.479561 173.932757 1003.181673 685.035772 1018.529978 705.321579 998.306108 720.620695 869.49174 818.067219 849.985487 832.823464 834.913446 813.46823 437.016339 302.496211ZM839.575373 777.604982 968.389739 680.158458 963.514174 715.743381 576.81206 204.640367 588.286225 213.092572 444.593165 161.465564 477.920574 137.028849 481.604275 286.233378 476.256559 271.231953 874.153664 782.20397 839.575373 777.604982ZM891.217762 585.494287 920.474916 626.446748 808.309143 708.435734 779.051989 667.483275 891.217762 585.494287Z"  horiz-adv-x="1024" />

    
    <glyph glyph-name="more" unicode="&#59047;" d="M642.174253 391.40582C650.164439 384.164713 650.070886 373.825747 641.84009 366.623802L332.618569 96.05497C323.751654 88.296418 322.853148 74.818816 330.611697 65.951902 338.370249 57.084988 351.847851 56.186481 360.714765 63.94503L669.936288 334.513862C697.36486 358.513862 697.727953 398.641139 670.825747 423.021263L360.992414 703.807722C352.26205 711.719614 338.770837 711.056111 330.858944 702.325748 322.947053 693.595384 323.610556 680.104171 332.340919 672.192277L642.174253 391.40582Z"  horiz-adv-x="1024" />

    
    <glyph glyph-name="106" unicode="&#58923;" d="M985.6 189.92c-5.12-5.12-7.68-7.68-10.24-10.24-2.56-2.56-5.12-7.68-7.68-7.68-2.56-2.56-5.12-5.12-7.68-7.68l-97.28 97.28c5.12 5.12 10.24 7.68 15.36 12.8 5.12 5.12 10.24 10.24 15.36 12.8 10.24 7.68 20.48 12.8 30.72 10.24 10.24 0 20.48-2.56 25.6-7.68 7.68-5.12 15.36-10.24 25.6-20.48 7.68-10.24 15.36-20.48 20.48-30.72 2.56-5.12 5.12-12.8 5.12-23.04C998.4 207.84 995.84 197.6 985.6 189.92L985.6 189.92 985.6 189.92zM808.96 10.72 768-30.24l-38.4-38.4c-10.24-10.24-20.48-20.48-28.16-28.16C693.76-104.48 691.2-109.6 691.2-109.6c-2.56-2.56-7.68-7.68-12.8-10.24-5.12-2.56-10.24-7.68-12.8-7.68-5.12-2.56-12.8-5.12-20.48-7.68-10.24-2.56-20.48-7.68-28.16-10.24-10.24-2.56-20.48-5.12-28.16-7.68C576-158.24 568.32-160.8 563.2-160.8c-10.24-2.56-15.36 0-17.92 2.56-2.56 5.12-5.12 10.24-2.56 20.48 0 5.12 2.56 12.8 5.12 20.48 2.56 10.24 5.12 17.92 7.68 28.16 2.56 10.24 5.12 17.92 7.68 28.16 2.56 7.68 5.12 15.36 5.12 17.92 5.12 10.24 10.24 17.92 17.92 25.6l15.36 15.36 28.16 28.16c12.8 12.8 23.04 25.6 38.4 38.4 12.8 15.36 28.16 28.16 40.96 43.52 33.28 33.28 71.68 71.68 112.64 112.64l97.28-97.28L808.96 10.72 808.96 10.72 808.96 10.72zM711.68 617.44c0 15.36-12.8 28.16-28.16 28.16l-56.32 0L627.2 704.48 742.4 704.48c15.36 0 28.16-12.8 28.16-28.16l0-391.68-56.32-64L714.24 617.44 711.68 617.44 711.68 617.44zM627.2 486.88c0-7.68-7.68-15.36-15.36-15.36L184.32 471.52c-7.68 0-15.36 7.68-15.36 15.36l0 28.16c0 7.68 7.68 15.36 15.36 15.36l430.08 0c7.68 0 15.36-7.68 15.36-15.36L629.76 486.88 627.2 486.88 627.2 486.88zM568.32 589.28l-28.16 0c-15.36 0-28.16 12.8-28.16 28.16L512 732.64C512 748 524.8 760.8 540.16 760.8l28.16 0c15.36 0 28.16-12.8 28.16-28.16l0-115.2C599.04 602.08 586.24 589.28 568.32 589.28L568.32 589.28 568.32 589.28zM312.32 704.48l171.52 0 0-58.88-171.52 0L312.32 704.48 312.32 704.48 312.32 704.48zM253.44 589.28 225.28 589.28c-15.36 0-28.16 12.8-28.16 28.16L197.12 732.64C197.12 748 209.92 760.8 225.28 760.8l28.16 0c15.36 0 28.16-12.8 28.16-28.16l0-115.2C284.16 602.08 271.36 589.28 253.44 589.28L253.44 589.28 253.44 589.28zM81.92 617.44l0-634.88c0-15.36 12.8-28.16 28.16-28.16l360.96 0-51.2-58.88L53.76-104.48c-15.36 0-28.16 12.8-28.16 28.16L25.6 676.32c0 15.36 12.8 28.16 28.16 28.16l115.2 0 0-58.88L112.64 645.6C94.72 645.6 81.92 632.8 81.92 617.44L81.92 617.44 81.92 617.44zM184.32 10.72c-7.68 0-15.36 7.68-15.36 15.36l0 28.16c0 7.68 7.68 15.36 15.36 15.36l394.24 0-51.2-58.88L184.32 10.72 184.32 10.72 184.32 10.72zM627.2 141.28c0-7.68-7.68-15.36-15.36-15.36L184.32 125.92c-7.68 0-15.36 7.68-15.36 15.36l0 28.16c0 7.68 7.68 15.36 15.36 15.36l430.08 0c7.68 0 15.36-7.68 15.36-15.36L629.76 141.28 627.2 141.28 627.2 141.28zM611.84 356.32 184.32 356.32c-7.68 0-15.36 7.68-15.36 15.36l0 28.16c0 7.68 7.68 15.36 15.36 15.36l430.08 0c7.68 0 15.36-7.68 15.36-15.36l0-28.16C627.2 364 619.52 356.32 611.84 356.32L611.84 356.32 611.84 356.32zM627.2 256.48c0-7.68-7.68-15.36-15.36-15.36L184.32 241.12c-7.68 0-15.36 7.68-15.36 15.36l0 28.16c0 7.68 7.68 15.36 15.36 15.36l430.08 0c7.68 0 15.36-7.68 15.36-15.36L629.76 256.48 627.2 256.48 627.2 256.48zM627.2 256.48"  horiz-adv-x="1024" />

    
    <glyph glyph-name="xunhuan" unicode="&#58989;" d="M512.271856 672.363249 512.271856 812 326.090231 625.818376l186.181624-186.181624L512.271856 579.272437c153.599467 0 279.272437-125.67297 279.272437-279.272437 0-46.544873-13.963782-93.090812-32.582157-130.327563l69.817843-69.817843c32.582157 60.508655 55.854061 125.67297 55.854061 200.145406C884.635104 504.8 717.071856 672.363249 512.271856 672.363249zM512.271856 20.727563c-153.599467 0-279.272437 125.67297-279.272437 279.272437 0 46.545939 13.963782 93.090812 32.582157 130.327563l-69.817843 69.817843c-32.582157-60.508655-55.854061-125.67297-55.854061-200.145406 0-204.8 167.563249-372.363249 372.363249-372.363249l0-139.636751 186.181624 186.181624-186.181624 186.181624L512.272922 20.727563z"  horiz-adv-x="1024" />

    
    <glyph glyph-name="biaoqing2" unicode="&#58886;" d="M512-127.9936c-282.7008 0-512 229.1008-512 511.5264C0 665.9776 229.2992 896 512 896s512-230.0224 512-512.4672C1024 101.1072 794.7008-127.9936 512-127.9936zM512 832.0064c-247.36 0-448-201.28-448-448.416C64 136.4672 264.64-64 512-64s448 200.4672 448 447.5904C960 630.7264 759.36 832.0064 512 832.0064zM512 64.0064c-154.8032 0-283.8976 109.9392-313.5488 256l66.5984 0C293.6 209.7792 392.8512 128.0128 512 128.0128s218.3936 81.7664 246.944 191.9936l66.6048 0C795.8912 173.9456 666.8096 64.0064 512 64.0064zM704 512.0064c-35.3472 0-64 28.6528-64 63.9936 0 35.3536 28.6528 64.0064 64 64.0064S768 611.3536 768 576C768 540.6592 739.3472 512.0064 704 512.0064zM320 512.0064c-35.3472 0-64 28.6528-64 63.9936 0 35.3536 28.6528 64.0064 64 64.0064S384 611.3536 384 576C384 540.6592 355.3472 512.0064 320 512.0064z"  horiz-adv-x="1024" />

    
    <glyph glyph-name="gouxuan" unicode="&#58909;" d="M511.322571 832.379007c-246.971881 0-447.189925-200.206788-447.189925-447.184809s200.218044-447.184809 447.189925-447.184809c246.978021 0 447.189925 200.206788 447.189925 447.184809S758.300592 832.379007 511.322571 832.379007L511.322571 832.379007zM767.82041 501.195166 478.605426 211.968925l-0.011256-0.016373c-13.331633-13.331633-33.667797-15.410991-49.185212-6.249331-2.87856 1.699712-5.584182 3.790326-8.055466 6.249331-0.005117 0.005117-0.005117 0.005117-0.005117 0.005117L254.825756 378.480286c-15.796778 15.808034-15.796778 41.432645 0 57.245795 15.808034 15.808034 41.437761 15.808034 57.245795 0l137.90279-137.90279 260.611529 260.611529c15.802918 15.802918 41.437761 15.802918 57.240679 0C783.628444 542.621671 783.628444 516.998083 767.82041 501.195166L767.82041 501.195166zM767.82041 501.195166"  horiz-adv-x="1024" />

    
    <glyph glyph-name="tongji" unicode="&#59451;" d="M112.270505 831.696462l31.978319 0 0-863.413582 767.479649 0 0-31.978319L112.270505-63.695438 112.270505 831.696462zM400.075373 447.956637l0-415.71712-191.869912 0 0 223.848231L400.075373 447.956637zM655.901922 415.978319l0-383.738801-191.869912 0L464.03201 447.956637l95.934956-127.912251L655.901922 415.978319zM911.728472 607.848231l0-575.608713-191.869912 0L719.85856 447.956637 911.728472 607.848231zM240.183779 384l-31.978319 31.978319 223.848231 223.848231 127.913275-127.913275 255.82655 223.848231-63.956637 63.956637 159.891593 0 0-159.891593-63.956637 63.956637-287.804868-255.82655-127.913275 127.913275L240.183779 384z"  horiz-adv-x="1024" />

    
    <glyph glyph-name="search" unicode="&#58900;" d="M937.024 70.528l-176.512 176.576c-2.624 2.624-5.568 4.608-8.32 6.784 38.208 58.688 60.544 128.512 60.544 203.776 0 206.784-167.552 374.4-374.4 374.4C231.616 832.064 64 664.448 64 457.664c0-206.784 167.68-374.4 374.4-374.4 75.264 0 145.216 22.4 203.904 60.608 2.176-2.816 4.096-5.696 6.72-8.256l176.512-176.576C840.96-56.32 861.056-64 881.216-64c20.16 0 40.32 7.68 55.744 23.04C967.68-10.176 967.68 39.744 937.024 70.528M438.336 201.536c-141.184 0-256.128 114.944-256.128 256.128 0 141.184 114.944 256.128 256.128 256.128 141.184 0 256.128-114.944 256.128-256.128C694.464 316.48 579.52 201.536 438.336 201.536"  horiz-adv-x="1024" />

    
    <glyph glyph-name="daloutubiao" unicode="&#58913;" d="M167.488 768.832l47.296 0 0-801.216-47.296 0 0 801.216ZM819.52 768.832l47.296 0 0-801.216-47.296 0 0 801.216ZM278.4 853.824l47.296 0 0-909.76-47.296 0 0 909.76ZM706.88 853.824l47.296 0 0-909.76-47.296 0 0 909.76ZM278.4 880.256l475.712 0 0-47.296-475.712 0 0 47.296ZM182.464 768.832l102.912 0 0-47.296-102.912 0 0 47.296ZM740.224 768.832l102.912 0 0-47.296-102.912 0 0 47.296ZM372.992 745.152l63.04 0 0-104.32-63.04 0 0 104.32ZM373.248 511.296l63.04 0 0-104.32-63.04 0 0 104.32ZM480.768 511.296l63.04 0 0-104.32-63.04 0 0 104.32ZM595.776 511.296l63.04 0 0-104.32-63.04 0 0 104.32ZM595.776 277.44l63.04 0 0-104.32-63.04 0 0 104.32ZM484.992 277.44l63.04 0 0-104.32-63.04 0 0 104.32ZM373.248 277.44l63.04 0 0-104.32-63.04 0 0 104.32ZM480.576 745.152l63.04 0 0-104.32-63.04 0 0 104.32ZM595.584 745.152l63.04 0 0-104.32-63.04 0 0 104.32ZM86.336 167.872c-29.76 0-53.888-24.128-53.888-53.888s24.128-53.888 53.888-53.888c30.592 0 53.888 14.08 53.888 53.888C140.224 143.744 116.096 167.872 86.336 167.872zM86.336 88.256c-14.208 0-25.728 11.52-25.728 25.728 0 14.208 11.52 25.728 25.728 25.728 14.208 0 25.728-11.52 25.728-25.728C112 99.776 100.544 88.256 86.336 88.256zM69.44 66.048l0-85.952 33.728 0c0 0 0 54.976 0 85.952C97.088 66.048 86.336 55.296 69.44 66.048zM941.824 167.872c-29.76 0-53.888-24.128-53.888-53.888s24.128-53.888 53.888-53.888c30.592 0 53.888 14.08 53.888 53.888C995.776 143.744 971.584 167.872 941.824 167.872zM941.824 88.256c-14.208 0-25.728 11.52-25.728 25.728 0 14.208 11.52 25.728 25.728 25.728 14.208 0 25.728-11.52 25.728-25.728C967.552 99.776 956.032 88.256 941.824 88.256zM924.992 66.048l0-85.952 33.728 0c0 0 0 54.976 0 85.952C952.64 66.048 941.824 55.296 924.992 66.048zM0-19.904l1028.032 0 0-67.008-1028.032 0 0 67.008Z"  horiz-adv-x="1029" />

    
    <glyph glyph-name="xuanze" unicode="&#59019;" d="M959.681624 896 63.998081 896c-63.977104 0-63.977104-64.976874-63.977104-63.977104l0-895.684566c0-63.977104 63.977104-63.977104 63.977104-63.977104l895.684566 0c0-0.998747 63.978127 0 63.978127 63.977104L1023.660774 832.022896C1022.659981 833.022667 1024.660544 896 959.681624 896M959.681624-63.661669 63.998081-63.661669 63.998081 832.022896l895.684566 0L959.682647-63.661669zM191.953312 448.158229l127.95523 0 0-127.95523-127.95523 0 0 127.95523ZM447.863772 448.158229l127.954207 0 0-127.95523-127.954207 0 0 127.95523ZM703.772186 448.158229l127.95523 0 0-127.95523-127.95523 0 0 127.95523Z"  horiz-adv-x="1024" />

    
    <glyph glyph-name="huhao" unicode="&#59005;" d="M427.29472 402.35008l-69.18144 0c-9.0112 0-16.31232-7.30112-16.31232-16.31232 0-9.02144 7.30112-16.31232 16.31232-16.31232l69.18144 0c9.0112 0 16.32256 7.28064 16.32256 16.31232C443.60704 395.04896 436.29568 402.35008 427.29472 402.35008zM567.57248 402.35008l-69.18144 0c-9.00096 0-16.32256-7.30112-16.32256-16.31232 0-9.02144 7.3216-16.31232 16.32256-16.31232l69.18144 0c9.0112 0 16.32256 7.28064 16.32256 16.31232C583.89504 395.04896 576.58368 402.35008 567.57248 402.35008zM700.8768 402.35008l-69.19168 0c-9.03168 0-16.3328-7.30112-16.3328-16.31232 0-9.02144 7.30112-16.31232 16.3328-16.31232l69.19168 0c9.00096 0 16.31232 7.28064 16.31232 16.31232C717.18912 395.04896 709.87776 402.35008 700.8768 402.35008zM932.39296 382.93504c-0.39936 0.39936-0.57344 0.91136-0.99328 1.29024l-34.29376 30.1056c-0.256 0.18432-0.58368 0.256-0.86016 0.49152L528.29184 739.38944c-9.07264 7.96672-22.6816 7.96672-31.70304 0l-416.80896-367.616c-7.4752-6.6048-10.07616-17.14176-6.56384-26.44992 3.52256-9.29792 12.42112-15.45216 22.40512-15.45216l125.02016 0 0-302.14144c0-26.97216 22.7328-48.91648 50.688-48.91648l132.89472 0c3.46112 0 6.73792 0.74752 9.8816 1.82272 13.9264 4.82304 23.86944 19.4048 23.86944 37.33504l0 8.71424 0.14336 0L438.1184 207.21664l148.48 0 0-189.24544c0-17.99168 9.99424-32.57344 24.00256-37.376 3.11296-1.0752 6.30784-1.78176 9.75872-1.78176l133.09952 0c27.97568 0 50.74944 21.95456 50.74944 48.91648L804.20864 259.96288c0 0.07168 0.02048 0.14336 0.02048 0.22528l0 45.62944c0 0.07168-0.02048 0.14336-0.02048 0.23552-0.14336 13.07648-10.78272 23.69536-23.9104 23.69536-13.2096 0-23.94112-10.74176-23.94112-23.94112l0-21.80096-0.02048 0 0.02048-256.13312c-0.14336-0.31744-1.11616-1.20832-2.89792-1.20832L634.59328 26.66496l0 189.2352c0 21.97504-14.848 39.17824-33.78176 39.17824L424.00768 255.0784c-18.93376 0-33.7408-17.21344-33.7408-39.17824l0-8.704-0.14336 0 0-180.54144L271.33952 26.65472c-1.90464 0-2.77504 1.00352-2.816 1.05472L268.52352 350.50496c0.09216 0.63488 0.14336 1.23904 0.16384 1.78176 0.43008 6.61504-1.92512 13.08672-6.44096 17.88928-4.51584 4.80256-10.84416 7.55712-17.43872 7.55712l-85.8624 0 353.49504 311.78752 352.60416-311.01952c0.12288-0.04096 0.256-0.04096 0.39936-0.04096-0.27648 0.23552-0.37888 0.54272-0.6144 0.79872 0.27648-0.3072 0.39936-0.65536 0.69632-0.93184l34.29376-30.1056c4.5568-4.00384 10.15808-5.92896 15.77984-5.92896 6.63552 0 13.28128 2.75456 18.00192 8.13056C941.93664 359.95648 941.16864 374.0672 932.39296 382.93504"  horiz-adv-x="1024" />

    
    <glyph glyph-name="diannaopcxianshiqi" unicode="&#59245;" d="M832 768 192 768C121.344 768 64 710.656 64 640l0-384c0-70.656 57.344-128 128-128l640 0c70.656 0 128 57.344 128 128L960 640C960 710.656 902.656 768 832 768zM896 256c0-35.328-28.608-64-64-64L192 192c-35.392 0-64 28.672-64 64L128 640c0 35.392 28.608 64 64 64l640 0c35.392 0 64-28.608 64-64L896 256zM736 0l-448 0C270.336 0 256-14.336 256-32S270.336-64 288-64l448 0c17.664 0 32 14.336 32 32S753.664 0 736 0z"  horiz-adv-x="1024" />

    
    <glyph glyph-name="fanhui" unicode="&#59063;" d="M263.031 385.891l458.561 458.861c7.865 8.069 7.7 21.094-0.369 28.959s-21.094 7.7-28.959-0.369c0 0-472.774-473.184-472.883-473.279-7.865-8.069-7.7-21.094 0.369-28.959l472.446-467.285c8.069-7.865 21.094-7.7 28.959 0.369s7.7 21.094-0.369 28.959l-457.756 452.745z"  horiz-adv-x="1024" />

    
    <glyph glyph-name="jiaoyiguanli" unicode="&#59103;" d="M860.668077 287.878841c-32.511634-29.503668-153.854269-130.878528-293.756695-133.758495-94.654935-2.111976-142.782394 26.879698-142.782394 26.879698l40.639543 148.030335c0 0 2.751969 11.135875-7.359917 6.527927C447.488726 330.950357 133.31626 186.887978 133.31626 186.887978s-6.143931-2.62397-2.175976-8.255907c3.327963-5.247941 172.030065-259.773078 201.277736-303.740583 2.751969-4.095954 5.055943-3.775958 6.463927 0.767991 7.551915 23.99973 32.063639 101.630857 42.367523 137.342455 343.10014-61.503308 462.842793 213.117602 484.346551 272.124939C868.155993 292.102794 866.172016 293.126782 860.668077 287.878841L860.668077 287.878841zM860.668077 287.878841M893.30771 589.891444 692.669967 892.800036c0 0-6.719924 8.063909-10.111886-1.535983-8.767901-27.967685-31.871641-100.798866-41.727531-135.166479-342.012152 61.31131-465.274766-206.909672-490.042487-272.764931C147.396102 474.308744 150.020072 473.476753 158.147981 480.580673c37.631577 33.599622 157.182232 129.534543 294.268689 132.47851 96.126919 1.919978 144.89437-27.391692 144.89437-27.391692L555.327513 433.349205c0 0-2.62397-9.727891 7.487916-4.607948 53.887394 27.007696 318.268419 145.598362 327.10032 150.142311C896.699672 582.083532 893.30771 589.891444 893.30771 589.891444L893.30771 589.891444zM893.30771 589.891444"  horiz-adv-x="1024" />

    
    <glyph glyph-name="zhuangtaijiazai" unicode="&#59039;" d="M516.166-122.057c-25.798 0-51.696 1.959-77.593 5.883-67.976 10.3-131.904 33.524-190.007 69.027-56.106 34.281-104.423 78.502-143.611 131.432-39.186 52.93-67.278 111.919-83.496 175.327-16.795 65.667-20.052 133.192-9.68 200.7s33.755 130.996 69.503 188.701c34.519 55.721 79.044 103.706 132.341 142.624 53.297 38.917 112.694 66.816 176.54 82.922 66.122 16.68 134.116 19.915 202.088 9.614 88.706-13.441 172.37-49.889 241.946-105.404 67.476-53.839 120.433-124.373 153.145-203.979 7.317-17.806-1.285-38.131-19.215-45.397-17.933-7.267-38.397 1.278-45.713 19.082-58.174 141.567-188.738 243.819-340.741 266.851-239.483 36.285-464.033-127.685-500.571-365.519-36.537-237.833 128.567-460.848 368.047-497.135 239.481-36.293 464.036 127.686 500.573 365.518 2.923 19.012 20.808 32.065 39.951 29.172 19.143-2.901 32.294-20.664 29.374-39.676-10.372-67.508-33.756-130.996-69.505-188.701-34.518-55.72-79.045-103.705-132.342-142.622-53.296-38.917-112.694-66.816-176.54-82.922-40.93-10.325-82.578-15.498-124.494-15.498z"  horiz-adv-x="1024" />

    
    <glyph glyph-name="message" unicode="&#59135;" d="M921.6 742.4 102.4 742.4c-56.5504 0-102.4-45.8496-102.4-102.4l0-512c0-56.5504 45.8496-102.4 102.4-102.4l819.2 0c56.5504 0 102.4 45.8496 102.4 102.4L1024 640C1024 696.5504 978.1504 742.4 921.6 742.4zM672.64 371.2256 972.8 599.9872l0-434.9696L672.64 371.2256zM102.4 691.2l819.2 0c20.9408 0 38.9376-12.672 46.848-30.72L511.9744 303.1808 55.5008 660.4544C63.4368 678.528 81.4336 691.2 102.4 691.2zM51.2 599.9616l300.1088-228.736L51.2 165.0176 51.2 599.9616zM921.6 76.8 102.4 76.8c-20.6592 0-38.3744 12.3392-46.464 29.9776l335.0528 231.2448 104.6528-87.68c4.736-3.8912 10.5472-5.888 16.3328-5.888 5.8368 0 11.6224 1.9968 16.384 5.888l104.6272 87.68 335.0784-231.2448C959.9488 89.1392 942.2336 76.8 921.6 76.8z"  horiz-adv-x="1024" />

    
    <glyph glyph-name="hezuobaoxiangongsi" unicode="&#59069;" d="M794.746154 48.074158 794.746154 681.529347l-99.609649 86.385463L360.985076 643.145132l0-31.998785 302.028824 102.381785 0-710.247156 202.419176 0 0 44.793182L794.746154 48.074158 794.746154 48.074158 794.746154 48.074158zM251.735883 243.233999l160.65498 31.992645 0 79.981612-160.65498-41.59228L251.735883 243.233999 251.735883 243.233999 251.735883 243.233999zM251.735883 3.280975l160.65498 0 0 83.189677-160.65498-12.800537L251.735883 3.280975 251.735883 3.280975 251.735883 3.280975zM251.735883 121.660106l160.65498 15.996322 0 79.981612-160.65498-25.594935L251.735883 121.660106 251.735883 121.660106 251.735883 121.660106zM251.735883 364.807892l160.65498 44.788066L412.390863 492.773356l-160.65498-54.386678L251.735883 364.807892 251.735883 364.807892 251.735883 364.807892zM585.888336 572.755991l-89.969081 54.392818L158.5659 505.574916l0-505.489726 44.966121 0L203.532021 483.180883l253.836219 83.184561 0-563.083445 131.732254 0L585.888336 572.755991 585.888336 572.755991 585.888336 572.755991zM585.888336 572.755991"  horiz-adv-x="1024" />

    
    <glyph glyph-name="fenxi" unicode="&#58978;" d="M512 768.832l-62.912-1.6c-216.128-15.84-387.2-195.84-387.2-416.032 0-230.624 186.656-417.568 417.312-417.568 220.224 0 400 171.456 415.936 387.584L896.512 384 512 384 512 768.832zM833.024 320c-15.648-192-168.096-324.672-354.112-324.672-196.448 0-355.744 159.36-355.744 355.808C123.168 537.152 256 689.696 448 705.376L448 320 833.024 320zM544 830.656 544 416l414.368 0C958.368 640 768 830.656 544 830.656zM608 764.128c32-4.576 49.44-12.192 74.4-22.752 42.432-17.92 79.04-43.616 111.776-76.352 32.736-32.736 57.696-68.032 75.648-110.464 10.56-24.96 17.408-42.56 22.016-74.56L608 480 608 764.128z"  horiz-adv-x="1024" />

    
    <glyph glyph-name="shebei1" unicode="&#58963;" d="M786.80888 48.162162c-78.766948-41.195238-174.908612 12.71458-185.92348 101.679797-2.165316 17.485233-1.77032 34.845623 4.060479 51.473325 2.681062 7.645121 0.748037 12.033058-4.535293 17.295921-85.061304 84.73487-170.006975 169.586396-254.761288 254.628258-5.791913 5.812379-10.41521 6.832615-18.577101 4.538363-72.713069-20.444635-148.311861 25.295106-163.248038 99.328239-5.504364 27.284413-3.914146 54.766324 8.968256 80.46666 5.552459 0.898463 7.238868-3.701299 9.866718-6.30152 25.057699-24.796756 49.783847-49.928133 74.934666-74.629721 21.171182-20.792559 46.709835-21.995967 65.357544-3.665483 18.324344 18.011212 17.283642 44.533262-3.222391 65.373916-27.201525 27.644617-54.81135 54.889121-84.061534 84.118839 40.922015 16.760732 79.538521 17.602913 117.610628-2.24411 54.163597-28.234041 81.982176-92.170213 65.165162-150.839427-2.618641-9.135054-0.449231-13.802354 5.454222-19.685341 84.323501-84.026742 168.561044-168.140465 252.513084-252.537643 6.738471-6.774287 12.271488-7.202029 21.269419-5.065366 50.978045 12.109806 95.838765-0.585331 130.86142-39.422871 33.613562-37.274952 43.297109-81.071434 26.674523-129.641639-3.615341-10.561543-5.962805-14.770402-15.988136-4.182252-24.579815 25.960255-50.173726 50.972928-75.732845 75.985602-13.395078 13.108552-29.463032 18.450211-47.742351 11.505032-16.111956-6.121418-25.689079-18.123776-27.915793-35.358299-2.143826-16.60519 4.963035-29.586852 16.483416-40.933271C731.59537 103.191476 758.666936 76.126051 786.80888 48.162162zM161.748894 101.758848c-2.139733 16.570397 5.341658 31.411407 17.679661 43.804668 69.580728 69.892837 139.431609 139.514497 209.017454 209.401194 4.931313 4.952802 7.687076 6.02318 13.220093 0.36225 26.425859-27.04189 53.243645-53.707203 80.263022-80.158644 5.226025-5.116531 5.455245-7.934716 0.11461-13.239536-69.965491-69.508074-139.195226-139.764184-209.69079-208.727859-34.113959-33.373085-85.326341-24.100908-105.519242 17.110703C162.217568 79.733205 161.738661 82.536041 161.748894 101.758848zM604.894713 431.945989c-2.417049 2.070148-4.787026 3.858888-6.878664 5.932106-10.878768 10.777461-21.303188 22.052249-32.662911 32.292474-6.878664 6.201236-5.358031 9.82374 0.508583 15.556301 25.924439 25.337061 50.785663 51.788503 77.244268 76.54228 20.823258 19.481703 39.050388 40.659025 48.748261 67.476811 15.32401 42.376133 43.383066 70.798463 85.785805 85.975117 13.31526 4.765537 26.082028 17.778922 38.353516 16.877389 12.574387-0.924045 20.049638-18.900465 31.370475-27.396977 13.862729-10.403954 15.204283-19.929912 5.646604-35.010375-13.049201-20.591991-23.242354-43.040259-34.013675-65.008596-3.831258-7.813966-8.870018-13.248745-16.868179-16.528442-59.121516-24.249287-108.413152-61.8343-150.242839-109.895923-12.371772-14.21577-26.558889-26.851555-39.938618-40.187281C609.794303 436.425 607.517447 434.401923 604.894713 431.945989z"  horiz-adv-x="1024" />

    
    <glyph glyph-name="numberlist" unicode="&#59002;" d="M106.125863 673.42273 39.160832 673.42273 39.160832 812.533524C39.160832 820.513556 37.137566 826.175015 33.090875 829.517982 29.044263 832.860948 21.27746 834.532431 9.790228 834.532431L0 834.532431 0 860.413479C14.881162 863.0016 27.804121 867.422917 38.76927 873.677588 48.167857 879.069499 57.435845 886.510198 66.573391 896L106.125863 896 106.125863 673.42273ZM139.020997 445.017718C139.020997 433.375547 136.018708 421.204283 130.013972 408.503611 125.053558 398.131436 116.438331 384.478523 104.167818 367.54432 91.897383 350.610196 79.496586 333.676308 66.965031 316.742105L133.14686 316.742105 133.14686 279.275441 0 279.275441 0 310.391808C18.797332 338.121492 31.589691 357.172145 38.37763 367.54432 46.470932 379.609954 55.738841 394.109558 66.181829 411.043761 72.969767 422.686011 77.27742 430.994196 79.104866 435.96863 80.932391 440.942986 81.846193 446.076062 81.846193 451.368015 81.846193 462.58688 77.27742 468.196273 68.139874 468.196273 62.91842 468.196273 59.393969 466.079508 57.566444 461.845977 55.738919 457.612446 54.825196 451.685612 54.825196 444.065241L54.825196 423.744276 0 423.744276 0 431.047129C0 435.28066 0.0653 439.408325 0.19582 443.430203 0.326341 447.452002 0.783202 451.579668 1.566405 455.813199 4.177132 470.842289 11.095513 482.27265 22.321703 490.104753 33.547815 497.936778 48.298299 501.852711 66.573391 501.852711 75.972057 501.852711 84.326321 501.058954 91.636342 499.47136 98.946442 497.883845 105.734223 495.290841 112 491.692268 130.01405 480.685056 139.020997 465.12703 139.020997 445.017718ZM136.347806-46.602319C136.347806-59.695104 135.348933-70.19008 133.351188-78.087326 131.353364-85.984571 127.357873-92.842614 121.364559-98.661691 110.376802-109.468514 93.895286-114.871769 71.919774-114.871769 48.695532-114.871769 31.090373-110.975134 19.103665-103.181785 7.117036-95.388436 1.123722-83.802506 1.123722-68.423601L0-42.549799 0-35.06814 57.685622-35.06814 57.685622-68.735291C57.685622-77.463867 60.931938-81.828076 67.424729-81.828076 72.41917-81.828076 75.478252-79.749908 76.601974-75.593413 77.725775-71.436997 78.287636-63.643727 78.287636-52.213445L78.287636-37.250284C78.287636-24.780958 75.665566-16.883791 70.421425-13.558626 66.425856-11.064714 57.560852-9.817797 43.826097-9.817797L43.826097 21.355441 47.197342 21.355441C61.181794 21.355441 69.859486 22.498462 73.230809 24.784502 76.602053 27.070622 78.287636 33.616896 78.287636 44.423719L78.287636 56.581278C78.287636 63.023813 77.913088 67.180229 77.163914 69.050604 75.665566 72.791434 72.668948 74.661809 68.173903 74.661809 61.181716 74.661809 57.685622 70.401497 57.685622 61.880793L57.685622 43.488492 0 43.488492 0 55.646129C0 75.597115 4.931978 89.261292 14.796012 96.638976 24.660047 104.01666 41.828194 107.705502 66.301007 107.705502 89.275471 107.705502 106.318769 103.185408 117.431454 94.145142 128.544138 85.104798 134.100362 70.713265 134.100362 50.970073 134.100362 38.708539 131.72799 29.460559 126.983247 23.225895 123.73693 18.861607 118.118242 14.705191 110.127104 10.756569 121.614336 6.807946 128.856143 1.040935 131.852839-6.54462 134.849536-14.130176 136.347806-27.482585 136.347806-46.602319ZM283.982375 803.259471 1102.769231 803.259471 1102.769231 664.148677 283.982375 664.148677 283.982375 803.259471ZM283.982375 455.482447 1102.769231 455.482447 1102.769231 316.371653 283.982375 316.371653 283.982375 455.482447ZM283.982375 107.705502 1102.769231 107.705502 1102.769231-31.405292 283.982375-31.405292 283.982375 107.705502Z"  horiz-adv-x="1103" />

    
    <glyph glyph-name="shuaxin" unicode="&#58905;" d="M976.004582 527.996983l-48.00257 0-26.439391 0-133.557257 0c-26.500897 0-48.00257 21.501673-48.00257 48.00257 0 26.500897 21.500242 48.00257 48.00257 48.00257l82.655279 0C775.503486 730.308957 652.160668 800.002011 511.997854 800.002011c-229.745488 0-415.999866-186.252948-415.999866-416.004157 0-26.495176-21.500242-47.996849-47.995418-47.996849C21.501673 336.001006 0.00143 357.495527 0.00143 383.997854l0 0C0.00143 666.779467 229.221964 896 512.003576 896c171.720151 0 323.251731-84.779414 415.998436-214.559002L928.002011 768.001252c0 26.496606 21.500242 47.996849 48.00257 47.996849s47.996849-21.500242 47.996849-47.996849l0-192.001699C1024.00143 549.498656 1002.505479 527.996983 976.004582 527.996983L976.004582 527.996983zM48.004001 240.003017l207.999218 0c26.500897 0 47.995418-21.500242 47.995418-48.00257S282.504116 143.999307 256.003218 143.999307l-83.314691 0c75.222956-106.435569 199.030651-175.999888 339.315048-175.999888 229.751209 0 415.998436 186.252948 415.998436 415.998436 0 26.500897 21.500242 48.00114 48.00257 48.00114s47.996849-21.500242 47.996849-48.00114l0 0c0-282.742992-229.249141-511.996424-511.996424-511.996424-171.937571 0-323.374745 85.125569-416.005587 215.27992l0-87.282602c0-26.495176-21.494521-47.996849-47.995418-47.996849C21.501673-47.9981 0.00143-26.497858 0.00143-0.001252l0 192.001699C0.00143 218.501344 21.501673 240.003017 48.004001 240.003017L48.004001 240.003017zM48.004001 240.003017"  horiz-adv-x="1025" />

    
    <glyph glyph-name="shezhi" unicode="&#58949;" d="M640.516 7.05C640.516 7.05 640.516 7.05 640.516 7.05c-13.9 0.002-27.404 6.01-36.132 16.066-11.886 13.62-49.55 49.036-80.378 49.036-30.616 0-68.862-35.622-79.844-48.1-8.706-9.886-22.12-15.79-35.882-15.79-6.556 0-12.742 1.314-18.39 3.908l-0.988 0.452-93.706 54.758-0.93 0.68c-17.06 12.484-23.554 36.89-15.102 56.782 0.064 0.152 8.642 20.834 8.642 39.696 0 57.234-44.558 103.804-99.332 103.804l-3.32 0c-0.202-0.008-0.402-0.01-0.604-0.01-15.69 0-28.462 14.56-32.542 37.104-0.328 1.804-7.998 44.562-7.998 78.244 0 33.69 7.668 76.446 7.994 78.248 4.134 22.826 17.186 37.492 33.15 37.096l3.322 0c54.772 0 99.332 46.566 99.332 103.804 0 18.854-8.574 39.534-8.662 39.742-8.442 19.87-1.906 44.274 15.224 56.714l0.968 0.706 98.898 56.764 1.028 0.458c5.57 2.482 11.668 3.738 18.128 3.738 13.73 0 27.174-5.774 35.958-15.448 11.704-12.808 48.704-46.116 78.65-46.116 29.662 0 66.438 32.652 78.1 45.232 8.732 9.478 22.078 15.152 35.678 15.152 6.59 0 12.802-1.302 18.462-3.872l0.998-0.454 95.52-55.458 0.944-0.688c17.088-12.464 23.598-36.874 15.138-56.776-0.062-0.152-8.642-20.836-8.642-39.694 0-57.24 44.562-103.804 99.332-103.804l3.32 0c15.944 0.37 29.016-14.268 33.146-37.096 0.33-1.802 8-44.558 8-78.246 0-33.684-7.67-76.442-8-78.246-4.13-22.826-17.202-37.436-33.148-37.094l-3.318 0c-54.77 0-99.332-46.57-99.332-103.804 0-18.856 8.574-39.53 8.66-39.738 8.44-19.86 1.916-44.264-15.188-56.72l-0.958-0.698-97.126-56.098-1.01-0.458C653.016 8.318 646.936 7.05 640.516 7.05L640.516 7.05zM637.564 54.874c0.436-0.296 1.66-0.804 2.95-0.804 0.056 0 0.104 0 0.15 0.004l90.744 52.418c-2.19 5.314-12.208 31.124-12.208 58.044 0 80.51 60.684 146.488 136.756 150.62 1.098 6.316 7.04 41.854 7.04 68.526 0 26.664-5.94 62.194-7.038 68.528-76.074 4.128-136.758 70.108-136.758 150.62 0 26.958 10.048 52.8 12.22 58.076l-89.276 51.834c-0.102 0.008-0.226 0.012-0.372 0.012-1.522 0-2.946-0.58-3.416-0.91-1.496-1.608-14.44-15.322-33.028-28.988-27.512-20.23-53.536-30.486-77.334-30.486-24.034 0-50.262 10.458-77.954 31.086-18.702 13.93-31.702 27.906-33.204 29.546-0.476 0.336-1.916 0.932-3.45 0.932-0.12 0-0.226-0.002-0.318-0.008l-92.468-53.076c2.216-5.384 12.196-31.146 12.196-58.016 0-80.51-60.682-146.49-136.758-150.62-1.096-6.324-7.04-41.862-7.04-68.528 0-26.664 5.942-62.194 7.042-68.528 76.076-4.128 136.756-70.108 136.756-150.618 0-27.01-10.084-52.898-12.234-58.108l87.518-51.142c0.056-0.004 0.122-0.004 0.194-0.004 1.28 0 2.494 0.492 2.922 0.78 1.636 1.838 14.71 16.296 33.534 30.714 28.066 21.496 54.736 32.392 79.27 32.392 24.77 0 51.636-11.104 79.87-33.012C622.808 71.462 635.932 56.736 637.564 54.874L637.564 54.874zM524.326 245.962c-72.942 0-132.284 62.018-132.284 138.242 0 76.222 59.342 138.238 132.284 138.238 72.944 0 132.286-62.014 132.286-138.238C656.612 307.98 597.27 245.962 524.326 245.962L524.326 245.962zM524.326 475.422c-48.13 0-87.29-40.92-87.29-91.216 0-50.298 39.16-91.218 87.29-91.218 48.134 0 87.292 40.92 87.292 91.218C611.62 434.502 572.462 475.422 524.326 475.422L524.326 475.422z"  horiz-adv-x="1024" />

    
    <glyph glyph-name="zhibiaoyuce" unicode="&#58944;" d="M416 384.384c-17.664 0-32-14.272-32-32l0-448c0-17.6 14.336-32 32-32S448-113.28 448-95.616l0 448C448 370.112 433.664 384.384 416 384.384zM160 192.384c-17.664 0-32-14.272-32-32l0-256c0-17.6 14.336-32 32-32S192-113.28 192-95.616l0 256C192 178.112 177.664 192.384 160 192.384zM672 256.384c-17.664 0-32-14.272-32-32l0-320c0-17.6 14.336-32 32-32s32 14.4 32 32l0 320C704 242.112 689.664 256.384 672 256.384zM928 384.384c-17.664 0-32-14.272-32-32l0-448c0-17.6 14.336-32 32-32s32 14.4 32 32l0 448C960 370.112 945.664 384.384 928 384.384zM1002.496 830.272c-6.528 3.136-13.632 3.52-20.48 2.112L800 832.384c-17.664 0-32-14.272-32-32 0-17.6 14.336-32 32-32l109.632 0L605.248 462.528 372.672 694.976c-0.256 0.384-0.32 0.768-0.64 1.024s-0.64 0.384-0.96 0.64L370.624 697.152c-9.088 9.152-22.4 11.264-33.536 6.528C332.608 702.016 328.32 699.648 324.736 696L9.728 379.264c-13.056-13.248-13.056-34.496 0-47.616 13.12-13.12 34.304-13.12 47.36 0l295.36 297.024L587.456 393.6c12.032-12.032 31.36-12.032 43.392 0 0.192 0.128 0.192 0.384 0.384 0.512 0.64 0.64 1.408 0.768 2.048 1.344L960 723.776l0-115.392c0-17.6 14.336-32 32-32S1024 590.72 1024 608.384l0 192C1024 814.4 1014.976 825.856 1002.496 830.272z"  horiz-adv-x="1024" />

    
    <glyph glyph-name="guanbi" unicode="&#58980;" d="M710.721695 621.555311 512 422.731288 313.278305 621.555311c-10.744479 10.744479-28.037973 10.744479-38.782452 0-10.744479-10.744479-10.744479-28.037973 0-38.782452l198.721695-198.721695L274.495853 185.227141c-10.744479-10.744479-10.744479-28.037973 0-38.782452 10.744479-10.744479 28.037973-10.744479 38.782452 0l198.721695 198.721695 198.721695-198.721695c10.744479-10.744479 28.037973-10.744479 38.782452 0 10.744479 10.744479 10.744479 28.037973 0 38.782452L550.782452 383.948836l198.721695 198.721695c10.744479 10.744479 10.744479 28.037973 0 38.782452C738.861997 632.197462 721.466174 632.197462 710.721695 621.555311L710.721695 621.555311z"  horiz-adv-x="1024" />

    
    <glyph glyph-name="yanjing" unicode="&#58943;" d="M507.7504 669.952c187.7504 0 349.3376-110.08 424.96-269.056l73.6768 0c-79.9232 197.12-272.8448 336.2816-498.6368 336.2816-225.6896 0-418.7136-139.1616-498.5856-336.2816l73.6768 0C158.464 559.872 320.0512 669.952 507.7504 669.952L507.7504 669.952zM507.7504 669.952M507.7504 131.8912c-187.6992 0-349.2864 110.08-424.9088 269.0048L9.1648 400.896c79.872-197.12 272.8448-336.2816 498.5856-336.2816 225.792 0 418.7648 139.2128 498.6368 336.2816l-73.6768 0C857.088 242.0224 695.552 131.8912 507.7504 131.8912L507.7504 131.8912zM507.7504 131.8912M328.3968 400.896c0-99.072 80.3328-179.3536 179.4048-179.3536 99.0208 0 179.3536 80.2816 179.3536 179.3536 0 99.072-80.3328 179.3536-179.3536 179.3536C408.7296 580.2496 328.3968 499.968 328.3968 400.896L328.3968 400.896zM619.8784 400.896c0-61.9008-50.2272-112.0768-112.0768-112.0768-61.9008 0-112.0768 50.176-112.0768 112.0768 0 61.9008 50.176 112.128 112.0768 112.128C569.6512 513.024 619.8784 462.848 619.8784 400.896L619.8784 400.896zM619.8784 400.896"  horiz-adv-x="1024" />

    
    <glyph glyph-name="tianjiaxiaoshoudan" unicode="&#58903;" d="M905.006506 170.153409 779.668916 170.153409 779.668916 295.492737 731.921428 295.492737 731.921428 170.153409 606.585574 170.153409 606.585574 122.407658 731.921428 122.407658 731.921428-2.929932 779.668916-2.929932 779.668916 122.407658 905.006506 122.407658ZM755.795172-124.466623c-151.113521 0-270.748026 119.631031-270.748026 270.746289 0 151.113521 119.634505 270.746289 270.748026 270.746289 151.115258 0 270.746289-119.632768 270.746289-270.746289C1026.544935-4.832118 906.91043-124.466623 755.795172-124.466623L755.795172-124.466623 755.795172-124.466623zM755.795172 377.726259c-125.641593 0-231.441382-105.801526-231.441382-231.443119 0-125.64333 105.799789-231.446593 231.441382-231.446593 125.64333 0 231.444856 105.803264 231.444856 231.446593C987.243502 278.536351 881.438501 377.726259 755.795172 377.726259L755.795172 377.726259 755.795172 377.726259zM182.81663 259.616977 403.194061 259.616977c12.594386 0 25.185297-12.590911 25.185297-25.18356l0-6.297193c0-12.592649-12.592649-25.185297-25.185297-25.185297L182.81663 202.950927c-12.592649 0-25.185297 12.592649-25.185297 25.185297l0 6.297193C157.631333 247.026066 163.928526 259.616977 182.81663 259.616977L182.81663 259.616977 182.81663 259.616977zM157.631333 605.924369 157.631333 605.924369c0 18.889842 12.592649 31.484227 25.185297 31.484227l497.420913 0c12.594386 0 25.187034-12.594386 25.187034-25.187034l0-6.297193c0-12.592649-12.592649-25.187034-25.187034-25.187034L182.81663 580.737335C163.928526 580.739072 157.631333 593.331721 157.631333 605.924369L157.631333 605.924369 157.631333 605.924369zM510.23418 391.844131 182.81663 391.844131c-12.592649 0-25.185297 12.592649-25.185297 25.185297l0 6.297193c0 12.592649 12.592649 25.185297 25.185297 25.185297l333.714743 0c12.592649 0 25.185297-12.592649 25.185297-25.185297l0-6.297193C535.419478 404.43678 529.124022 391.844131 510.23418 391.844131L510.23418 391.844131 510.23418 391.844131zM804.430347 448.511918c-12.592649 0-23.448141 12.592649-23.448141 25.185297L780.982206 775.927732c0 31.485964-25.187034 56.667787-56.669525 56.667787L126.148842 832.595519c-31.48249 0-56.667787-25.18356-56.667787-56.667787l0-711.501151c0-31.480753 25.185297-56.667787 56.667787-56.667787l327.41755 0c12.594386 0 25.187034-12.592649 25.187034-25.187034 0-12.592649-12.592649-25.187034-25.187034-25.187034L126.148842-42.615276C63.183862-42.613539 19.108723 7.76053 19.108723 64.428318L19.108723 775.927732C19.108723 832.595519 69.481055 882.969588 126.148842 882.969588l598.163839 0c62.966718 0 107.041856-50.374069 107.041856-107.041856L831.354538 473.697216C831.354538 458.264316 823.320188 448.511918 804.430347 448.511918L804.430347 448.511918 804.430347 448.511918z"  horiz-adv-x="1035" />

    
    <glyph glyph-name="dianpu" unicode="&#58984;" d="M828.755224 641.452583M173.500543 369.346255c-28.009937 0-52.873208 4.924149-74.037227 14.653745l-0.312108 0-6.966669 3.567245c-56.69321 30.41266-91.789543 89.267093-91.837638 153.719011 0 19.146059 3.171226 38.231743 9.416464 56.752562l1.345648 4.684696 100.726076 240.140289c9.489118 27.710109 34.639938 44.285622 68.511373 44.285622l666.573471 0c38.219463-2.221598 61.905932-18.088984 71.898517-47.216371l95.729272-242.326071c5.957689-17.488303 9.104355-36.44198 9.104355-55.491849 0.144286-63.574944-34.304294-122.141828-89.867774-152.818501l0 0c-22.893406-12.659321-50.735521-19.194154-82.733283-19.386536-60.415998 0-115.427916 31.013341-147.281391 82.9492l-1.465374 2.618641c-1.51347 3.326768-3.171226 6.942109-5.957689 10.029424-2.570545 2.907213-6.581905 6.137791-15.566534 6.137791-6.845918 0-12.58769-2.654456-14.70184-5.273097-3.53143-4.03592-5.164626-7.435343-6.726192-10.714016l-1.537006-2.834558c-31.612998-51.587935-85.879949-82.624812-145.215336-83.009576-60.20008 0.312108-114.802676 31.40936-146.488329 83.201957l-1.51347 2.798742c-1.201361 2.49789-3.00238 6.173606-4.804423 8.227382-2.978844 3.543709-8.960069 6.426363-16.983813 6.426363-7.494695 0-12.707416-2.570545-13.860682-3.939729-3.939729-4.396123-5.693676-8.287757-6.870478-10.870582l-1.633197-3.207042C288.255123 400.407692 233.435587 369.526357 173.500543 369.346255zM111.161752 422.063921l1.657756-0.816598c16.527418-8.323573 36.921911-12.551874 60.60838-12.551874 46.195112 0.156566 88.546685 24.057929 113.217574 63.947428 1.321088 3.110851 5.02034 11.302417 12.251022 19.290345 9.224082 11.110035 25.704428 17.884322 43.913139 17.884322 18.809391 0 36.226063-7.423063 46.603411-19.878746 5.237281-5.897314 8.55177-12.755512 10.546194-16.851806 24.239054-39.613206 66.398246-63.683415 112.472608-63.923892 45.546336 0.312108 87.369883 24.310685 111.800295 64.22372 1.681292 3.591805 5.164626 10.858302 11.458983 18.005073 9.849322 12.17939 26.78504 19.602454 45.089941 19.602454 18.20871 0 33.751708-6.665817 44.945655-19.278065 6.702656-7.471159 10.329253-15.374152 12.059664-19.181875 24.166399-39.276539 66.6377-63.275115 113.14492-63.275115 25.223474 0.167822 46.723138 5.03262 63.827701 14.485923l0 0c43.00035 23.734564 69.641103 69.076238 69.544913 118.334105 0 14.773472-2.449795 29.475312-7.302313 43.720757-0.648776 2.306532-1.057075 3.820002-1.345648 5.152347l-93.734848 235.323587c-5.717212 16.59905-18.425651 20.515243-35.817764 21.536502l-665.756873-0.01228c-25.223474 0-29.979802-13.776771-31.781844-18.965957L48.079018 589.115588c-0.336668-1.381463-0.624217-2.342348-0.889253-3.207042-5.02034-14.905478-7.494695-29.763884-7.494695-44.61001 0.048095-49.918923 27.193339-95.488795 70.842465-118.91125L111.161752 422.063921zM803.511283 600.105896 220.512253 600.105896c-10.858302 0-19.674085 8.804527-19.674085 19.674085 0 10.870582 8.815783 19.674085 19.674085 19.674085l582.999031 0c10.858302 0 19.674085-8.804527 19.674085-19.674085C823.185368 608.909399 814.369585 600.105896 803.511283 600.105896zM847.160409-119.148401l-670.296259 0c-44.753273 0-81.171718 36.406165-81.171718 81.171718L95.692433 286.036851c0 10.870582 8.815783 19.674085 19.674085 19.674085s19.674085-8.804527 19.674085-19.674085l0-324.013535c0-23.061228 18.761296-41.822524 41.822524-41.822524l670.296259 0c23.061228 0 41.822524 18.761296 41.822524 41.822524L888.98191 286.036851c0 10.870582 8.815783 19.674085 19.674085 19.674085 10.858302 0 19.674085-8.804527 19.674085-19.674085l0-324.013535C928.331104-82.74326 891.913683-119.148401 847.160409-119.148401z"  horiz-adv-x="1024" />

    
    <glyph glyph-name="jishiben01" unicode="&#58901;" d="M581.220013 849.775212 190.865537 849.775212c-35.96512 0-65.225537-33.274848-65.225537-74.173326l0-770.142292c0-40.899502 29.260417-74.173326 65.225537-74.173326l651.829675 0c35.96512 0 65.225537 33.274848 65.225537 74.173326L907.92075 521.556912 581.220013 849.775212zM584.443427 788.51601 847.446423 524.291187 608.735693 524.291187c-13.167904 0-24.292266 15.222703-24.292266 33.241079L584.443427 788.51601zM842.695213-27.781484 190.865537-27.781484c-13.167904 0-24.293289 15.222703-24.293289 33.241079L166.572248 775.601886c0 18.018376 11.125385 33.241079 24.293289 33.241079l352.645642 0 0-251.310699c0-40.899502 29.260417-74.173326 65.224514-74.173326l258.252809 0 0-477.899344C866.988502-12.558781 855.863117-27.781484 842.695213-27.781484zM255.490394 581.668988l208.754464 0c11.30344 0 20.466124 9.162684 20.466124 20.466124s-9.162684 20.466124-20.466124 20.466124l-208.754464 0c-11.30344 0-20.466124-9.162684-20.466124-20.466124S244.186953 581.668988 255.490394 581.668988zM255.490394 415.210839l208.754464 0c11.30344 0 20.466124 9.162684 20.466124 20.466124s-9.162684 20.466124-20.466124 20.466124l-208.754464 0c-11.30344 0-20.466124-9.162684-20.466124-20.466124S244.186953 415.210839 255.490394 415.210839zM803.036981 289.685961 255.490394 289.685961c-11.30344 0-20.466124-9.162684-20.466124-20.466124s9.162684-20.466124 20.466124-20.466124l547.546587 0c11.30344 0 20.466124 9.162684 20.466124 20.466124S814.340421 289.685961 803.036981 289.685961zM803.036981 123.227812 255.490394 123.227812c-11.30344 0-20.466124-9.162684-20.466124-20.466124s9.162684-20.466124 20.466124-20.466124l547.546587 0c11.30344 0 20.466124 9.162684 20.466124 20.466124S814.340421 123.227812 803.036981 123.227812z"  horiz-adv-x="1024" />

    
    <glyph glyph-name="kehuzhongxin" unicode="&#58925;" d="M640.089283 423.872103c39.699164 29.774117 66.168002 79.403444 66.168002 132.338051 0 92.631724-76.094072 168.727843-168.729889 168.727843-92.632747 0-168.726819-76.096119-168.726819-168.727843 0-52.933583 26.464745-102.56291 66.166979-132.338051-105.868189-43.010583-178.654936-142.262074-178.654936-261.363659l0-56.245002c0-16.541745 13.236466-29.774117 29.779234-29.774117l509.494946 0c16.541745 0 29.774117 13.231349 29.774117 29.774117l0 56.245002C818.745243 278.299633 742.651171 380.860497 640.089283 423.872103L640.089283 423.872103 640.089283 423.872103 640.089283 423.872103M421.735184 556.210154c0 62.85863 49.624211 112.482841 112.487957 112.482841 62.856583 0 112.482841-49.624211 112.482841-112.482841 0-62.8617-49.624211-112.487957-112.482841-112.487957C471.360418 443.722196 421.735184 493.349477 421.735184 556.210154L421.735184 556.210154 421.735184 556.210154 421.735184 556.210154M762.501264 132.730233 305.938877 132.730233l0 29.77821c0 125.719306 102.564957 224.971821 228.285287 224.971821 125.719306 0 228.279147-102.55984 228.279147-224.971821l0-29.77821L762.501264 132.730233 762.501264 132.730233 762.501264 132.730233M322.483692 397.402241l6.615675 0c13.231349 3.309372 19.850094 13.236466 19.850094 26.469861 0 13.231349-6.617721 23.160489-19.850094 26.465768-29.77514 13.236466-49.627281 43.010583-49.627281 76.095096 0 39.701211 23.160489 69.475328 59.553351 82.71077 6.614651 19.847024 16.541745 36.388768 26.466792 49.625234 0 3.309372 3.309372 6.614651 6.617721 9.924024l-6.617721 0c-79.401398 0-142.263098-62.859653-142.263098-142.262074 0-36.393885 13.231349-69.475328 36.392862-95.942119-72.783677-36.390815-122.407887-112.484887-122.407887-198.504006l0-43.010583c0-16.541745 13.232372-29.774117 29.77514-29.774117l49.628304 0c0 19.850094 3.306302 39.701211 6.614651 56.243979l-29.774117 0 0 16.540721C193.455014 311.384146 246.390643 377.556241 322.483692 397.402241L322.483692 397.402241 322.483692 397.402241 322.483692 397.402241M808.818149 433.795103c23.160489 26.468838 36.393885 59.553351 36.393885 95.945189 0 76.094072-62.85863 142.261051-142.262074 142.261051l-6.617721 0c3.309372-6.617721 6.617721-9.923 6.617721-13.231349 9.928117-16.541745 19.850094-33.082466 26.468838-49.625234 33.084513-9.927093 59.550281-43.010583 59.550281-79.402421 0-33.082466-19.851117-62.85863-49.624211-76.095096-9.924024-3.309372-19.85214-13.233396-19.85214-26.465768 0-13.233396 9.927093-23.159466 19.85214-26.468838l6.617721 0c76.091002-19.85214 129.025609-86.018096 129.025609-162.113191l0-16.541745-29.774117 0c3.309372-19.851117 6.617721-36.392862 6.617721-56.238862l49.624211 0c16.541745 0 29.774117 13.231349 29.774117 29.774117L931.23013 238.599446C931.229107 318.003913 881.603873 394.096962 808.818149 433.795103L808.818149 433.795103 808.818149 433.795103 808.818149 433.795103"  horiz-adv-x="1024" />

    
    <glyph glyph-name="zan" unicode="&#58918;" d="M958.7 384c-8.7 66.9-23.8 112.1-111.8 112.1h-223.6s26.9 55.9 27.9 140.2c-1.1 2.7-4.7 168.2-111.8 168.2-77.4 0-86.3-88.8-98.1-129.6-29-112.4-98-201.5-209.3-206.8h-111.7c-38.9-3.6-55-24.2-55.9-52.2-0.9-28 0-396.3 0-396.3 0-39.2 24.4-56.1 55.9-56.1h111.8c13.4 0 18.7 0.1 22.5 0.1 1.9 0 3.4 0 5.4-0.1h531.4c28.1 0 55.5 3.3 83.5 56.1-1.5 0 97.5 220.2 83.8 364.4zM128.2 404.1h83.8v-376.6h-83.6c-0.3 134.6-0.6 328.6-0.2 376.6zM819.3 53.3c-1.2-3.1-2.2-5.5-3-7.5-7.8-13.7-12.7-17.2-13.3-17.6-0.9-0.3-3.5-0.7-11.6-0.7h-523.4v380.2c23.6 4 46.2 11.2 67.4 21.5 29 14 55.5 33.6 78.8 58.3 21.1 22.5 39.6 49.2 55 79.5 14 27.6 25.4 58.2 34 91 1.9 6.8 3.6 13.8 5.4 21.2 4.3 17.7 9.6 39.7 17.8 53 2.1 3.3 4.2 5.9 5.8 6.9 1.7 1.1 4.9 1.3 7.3 1.3 7.8 0 11.9-2.3 15.7-5.7 4.2-3.8 10.5-11.6 16.8-27.2 7.7-19.2 12.8-43.7 15.1-72.7 0-0.4 0.1-0.9 0.1-1.3-1.4-63.3-20.1-106.5-21.7-109.9l-45.8-91.5h327.2c16.7 0 25.9-2.1 30.6-3.9 3.7-1.4 4.6-2.5 5.1-3.2 7-8.7 10.9-37.1 12.4-48.1 4-44.7-5.2-108.1-26.8-183.3-18.3-64.2-40.6-119.5-48.9-140.3z"  horiz-adv-x="1024" />

    
    <glyph glyph-name="touxiang" unicode="&#58902;" d="M510.154955 385.845045m-505.542342 0a505.542342 505.542342 0 1 1 1011.084684 0 505.542342 505.542342 0 1 1-1011.084684 0ZM510.154955 891.387387C231.553153 891.387387 5.535135 665.369369 5.535135 385.845045S231.553153-118.774775 510.154955-118.774775c278.601802 0 505.542342 226.018018 505.542342 505.542343S789.679279 891.387387 510.154955 891.387387z m249.081081-711.264864c0-65.499099-125.463063-80.259459-242.623423-80.25946-117.16036 0-243.545946 14.76036-243.545946 80.25946v17.527927c0 47.971171 86.717117 96.864865 160.518919 123.618018 5.535135 1.845045 30.443243 15.682883 16.605405 53.506307-36.900901 36.900901-63.654054 97.787387-63.654054 156.828829 0 91.32973 59.963964 138.378378 130.998198 138.378378 70.111712 0 130.998198-47.971171 130.998198-138.378378 0-59.041441-27.675676-119.005405-63.654054-156.828829-13.837838-42.436036 8.302703-52.583784 11.992793-53.506307 77.491892-25.830631 164.209009-73.801802 164.209009-123.618018v-17.527927z"  horiz-adv-x="1024" />

    
    <glyph glyph-name="gongchang" unicode="&#58892;" d="M983.058 874.49c-1.823 0-3.563-0.061-5.303-0.246-5.612 10.383-18.802 17.582-34.224 17.582-15.318 0-28.486-7.198-34.058-17.459-3.687 0.943-7.495 1.373-11.449 1.373-20.438 0-37.026-12.759-37.026-28.591 0-9.329 5.775-17.592 14.684-22.783h131.686c7.782 5.191 12.739 12.953 12.739 21.586-0.001 15.769-16.651 28.538-37.049 28.538zM645.446 698.896h67.913l0.778-6.881h175.327c13.886 9.329 22.63 23.091 22.63 38.358 0 28.221-29.512 51.067-65.904 51.067-3.276 0-6.431-0.256-9.462-0.563-9.994 18.329-33.483 31.354-60.927 31.354-27.259 0-50.688-12.77-60.724-31.109-6.43 1.628-13.189 2.447-20.253 2.447-36.455 0-65.967-22.784-65.967-50.943 0.001-12.953 6.268-24.781 16.589-33.73zM707.256 692.015H574.197l-18.944-171.396h170.968l-18.965 171.396zM730.028 486.263H551.403l-32.686-296.19h244.079l-32.768 296.19zM230.719 688.072H97.6L78.656 516.666h171.038l-18.975 171.406zM979.741 63.426l-87.368 106.577H509.092L389.234 59.739V190.073H285.779l-32.297 292.248H74.867L42.601 190.073h-0.44v-229.211H3.413v-85.729h944.439v85.729h-31.619V63.426h63.508z m-350.883 79.708h68.648v-63.878h-68.648v63.878z m0-95.539h68.648v-63.835h-68.648v63.835z m-104.53 95.539h68.629v-63.878h-68.629v63.878z m0-95.539h68.629v-63.835h-68.629v63.835zM192.8 155.032h68.68v-63.877H192.8v63.877z m0-95.538h68.68v-63.898H192.8v63.898zM88.261 155.032H156.9v-63.877H88.261v63.877z m0-95.538H156.9v-63.898H88.261v63.898z m686.272-98.632V63.426h100.902v-102.563H774.533zM168.594 718.424H300.26c7.782 5.13 12.748 12.892 12.748 21.524 0 15.77-16.62 28.6-37.058 28.6-1.823 0-3.564-0.061-5.325-0.317-5.55 10.394-18.759 17.592-34.202 17.592-15.309 0-28.518-7.137-34.099-17.398-3.563 0.871-7.414 1.434-11.376 1.434-20.46 0-37.018-12.832-37.018-28.724 0-9.257 5.734-17.581 14.664-22.711zM358.883 752.154h131.675c7.782 5.191 12.738 12.892 12.738 21.524 0 15.832-16.62 28.601-37.048 28.601-1.803 0-3.563-0.062-5.304-0.317-5.612 10.394-18.852 17.644-34.222 17.644-15.35 0-28.498-7.189-34.109-17.449a48.706 48.706 0 0 1-11.407 1.372c-20.46 0-37.018-12.831-37.018-28.601 0-9.258 5.734-17.583 14.695-22.774z"  horiz-adv-x="1024" />

    
    <glyph glyph-name="chakan" unicode="&#59050;" d="M730.639515 657.097697c0 22.217697-17.997576 40.215273-40.215273 40.215273H214.016a40.215273 40.215273 0 1 1 0-80.430546H690.424242c22.186667 0 40.215273 17.997576 40.215273 40.215273zM173.769697 467.347394c0-22.217697 18.028606-40.215273 40.246303-40.215273h304.965818c9.619394 29.478788 24.327758 56.599273 43.132121 80.430546H213.98497c-22.217697 0-40.215273-17.997576-40.215273-40.215273zM843.651879-26.748121a26.624 26.624 0 0 0-26.624-26.624H87.381333a26.65503 26.65503 0 0 0-26.592969 26.624V801.264485c0 14.677333 11.915636 26.59297 26.592969 26.59297H817.027879c14.677333 0 26.624-11.915636 26.624-26.59297v-204.862061c21.193697-6.423273 41.270303-15.39103 59.795394-26.65503v231.486061A86.512485 86.512485 0 0 1 817.027879 887.714909H87.381333A86.512485 86.512485 0 0 1 0.961939 801.264485v-828.012606a86.512485 86.512485 0 0 1 86.419394-86.419394H817.027879a86.512485 86.512485 0 0 1 86.419394 86.419394v148.448969a260.592485 260.592485 0 0 0-59.795394-26.624v-121.824969zM1238.946909 58.647273l-251.376485 166.570666a246.504727 246.504727 0 0 1 32.73697 123.035152c0 136.781576-111.274667 248.056242-248.056242 248.056242-136.750545 0-248.025212-111.274667-248.025213-248.056242 0-136.750545 111.274667-248.025212 248.025213-248.025212a247.032242 247.032242 0 0 1 165.298424 63.301818l257.737697-170.790788c5.15103-3.413333 19.114667 8.564364 31.185454 26.748121 12.039758 18.214788 17.625212 35.746909 12.474182 39.160243z m-466.695757 100.662303a189.191758 189.191758 0 0 0-188.974546 188.974545 189.191758 189.191758 0 0 0 188.974546 188.943515 189.191758 189.191758 0 0 0 188.974545-188.974545 189.191758 189.191758 0 0 0-188.974545-188.974546z"  horiz-adv-x="1241" />

    
    <glyph glyph-name="dingwei" unicode="&#58906;" d="M504.624 896C303.856 896 141.088 725.424 141.088 515.024 141.088 304.608 511.664-128 511.664-128s356.48 432.608 356.48 643.024C868.144 725.424 705.392 896 504.624 896z m6.624-987.6S162.512 315.52 162.512 513.536c0 198.016 153.168 358.528 342.096 358.528 188.944 0 342.112-160.528 342.112-358.528 0-198.016-335.472-605.136-335.472-605.136zM507.104 718.768c-101.584 0-183.936-82.352-183.936-183.952 0-101.584 82.352-183.936 183.936-183.936s183.952 82.352 183.952 183.936c0 101.6-82.352 183.952-183.952 183.952z m0-341.696c-87.12 0-157.76 70.624-157.76 157.76 0 87.12 70.624 157.76 157.76 157.76s157.76-70.624 157.76-157.76-70.624-157.76-157.76-157.76z"  horiz-adv-x="1024" />

    
    <glyph glyph-name="zhuzhuangtutubiao" unicode="&#58897;" d="M262.899524 414.231408H138.349286c-34.437411 0-62.275119-27.836492-62.27512-62.275119v-311.375596c0-34.437411 27.836492-62.275119 62.27512-62.275119H262.899524c34.438627 0 62.275119 27.837708 62.275119 62.275119v311.375596c0 34.437411-27.836492 62.275119-62.275119 62.275119z m12.163109-385.81504H126.186176v335.701814h148.876457v-335.701814z m610.588081 510.365278H761.100476c-34.437411 0-62.273903-27.836492-62.273902-62.275119v-435.925834c0-34.437411 27.837708-62.275119 62.273902-62.275119h124.550238c34.438627 0 62.276335 27.837708 62.276336 62.275119v435.925834c0 34.438627-27.837708 62.275119-62.276336 62.275119z m12.16311-510.365278H748.937367v460.252052h148.876457v-460.252052zM574.275119 787.882122H449.724881c-34.438627 0-62.275119-27.836492-62.275119-62.275119v-685.02631c0-34.437411 27.836492-62.275119 62.275119-62.275119h124.550238c34.438627 0 62.276335 27.837708 62.276335 62.275119v685.02631c0 34.438627-27.837708 62.275119-62.276335 62.275119z m12.163109-759.465754H437.561772v709.352528h148.876456v-709.352528z"  horiz-adv-x="1024" />

    
    <glyph glyph-name="wo" unicode="&#58898;" d="M531.114667 702.805333l-137.216-15.36v-85.674666h188.757333l-17.066667 229.034666h137.216l20.821334-229.034666h217.429333v-129.706667h-204.117333l9.557333-78.165333 34.474667 49.493333h156.330666l-133.461333-194.56 30.378667-38.229333 13.312 78.165333h110.592l-38.229334-300.373333h-62.805333l-148.821333 159.402666-116.053334-146.090666h-165.888l200.362667 256.682666-30.378667 213.674667h-202.069333V380.586667l145.066667 30.378666v-133.461333l-145.066667-30.378667v-252.586666H149.504V121.173333H252.586667v95.232l-160.085334-36.181333v137.216L252.586667 351.914667v120.149333H82.944v129.706667H252.586667V672.085333L107.52 657.066667V786.773333l423.253333 41.984v-125.952z m209.92 116.394667H884.053333l59.050667-164.181333h-143.018667l-59.050666 164.181333z"  horiz-adv-x="1024" />

    
    <glyph glyph-name="tianjiawenjianjia" unicode="&#58956;" d="M856.973404 25.105027H168.638303c-55.067176 0-96.366791 41.299615-96.366791 96.366791V617.07436c0 13.767562 13.766538 27.533077 27.533076 27.533076 13.767562 0 27.533077-13.766538 27.533077-27.533076v-495.601519c0-20.649296 20.650319-41.299615 41.300638-41.299614h688.335101c13.767562 0 20.651342 6.883781 27.5341 13.766538 6.883781 6.884804 13.766538 13.767562 13.766538 27.533076V506.940007c0 13.767562-6.883781 20.650319-13.766538 27.5341-6.883781 13.766538-13.766538 13.766538-27.5341 13.766538H533.456173c-48.182372 0-89.483011 20.650319-117.017111 48.183396l-68.833714 68.834738c-20.649296 20.649296-48.183396 34.415834-82.600253 34.415834H99.804588c-13.766538 0-27.533077 13.766538-27.533076 27.534099 0 13.766538 13.766538 27.533077 27.533076 27.533077h165.200507c41.299615 0 82.600253-20.650319 117.01711-48.183396l68.832691-68.833714c27.5341-20.650319 55.0682-34.416857 82.600253-34.416858h323.517232c27.5341 0 48.185442-6.883781 68.834738-27.5341 20.650319-20.649296 27.5341-41.299615 27.5341-68.833714v-385.468189c0-27.533077-6.884804-48.183396-27.5341-68.832691-20.648272-20.650319-41.299615-27.5341-68.833715-27.5341zM540.339954 293.556105v-65.391313a27.5341 27.5341 0 0 0-55.067177 0V293.556105h-65.392336c-15.20633 0-27.533077 12.326746-27.533077 27.533077s12.326746 27.533077 27.533077 27.533076h65.392336v65.392336a27.530007 27.530007 0 0 0 13.767562 23.844058 27.532053 27.532053 0 0 0 41.299615-23.844058v-65.392336h65.390289c15.207353 0 27.5341-12.326746 27.5341-27.533076s-12.326746-27.533077-27.5341-27.533077H540.339954z"  horiz-adv-x="1024" />

    
    <glyph glyph-name="CombinedShapeCopy" unicode="&#59117;" d="M1387.054545 680.029091C1235.595636 773.771636 1040.197818 826.181818 837.818182 826.181818c-202.472727 0-397.870545-52.224-549.143273-146.152727C147.269818 591.872 69.818182 482.676364 69.818182 384c0-98.769455 77.358545-208.058182 218.670545-296.029091 151.272727-93.928727 346.577455-146.152727 549.236364-146.152727 202.472727 0 397.870545 52.224 549.236364 146.152727 141.405091 87.970909 218.856727 197.259636 218.856727 296.029091s-77.451636 208.058182-218.763637 296.029091z m36.77091 59.205818C1583.941818 639.813818 1675.636364 510.231273 1675.636364 384c0-126.231273-91.787636-255.720727-251.810909-355.328C1260.916364-72.331636 1052.858182-128 837.632-128c-215.226182 0-423.377455 55.668364-586.007273 156.672C91.694545 128.279273 0 257.675636 0 384c0 126.231273 91.787636 255.720727 251.810909 355.234909C414.533818 840.238545 622.592 896 837.818182 896s423.377455-55.761455 586.007273-156.765091zM837.818182 640A256.279273 256.279273 0 0 1 581.818182 384 256.279273 256.279273 0 0 1 837.818182 128a256.279273 256.279273 0 0 1 256 256A256.279273 256.279273 0 0 1 837.818182 640z m0-46.545455c115.432727 0 209.454545-94.021818 209.454545-209.454545S953.250909 174.545455 837.818182 174.545455 628.363636 268.567273 628.363636 384 722.385455 593.454545 837.818182 593.454545z m19.735273-69.818181c-89.088 0-161.698909-72.145455-161.69891-161.047273a23.272727 23.272727 0 0 1 46.545455 0c0 63.115636 51.665455 114.501818 115.153455 114.501818a23.272727 23.272727 0 0 1 0 46.545455z"  horiz-adv-x="1675" />

    
    <glyph glyph-name="xieyi" unicode="&#58883;" d="M840.948571 692.685714h-85.977142v40.662857a56 56 0 0 1-56 56h-60.205715A127.52 127.52 0 0 1 513.325714 896h-1.348571c-62.171429 0-115.691429-45.622857-125.76-106.651429h-58.514286a56 56 0 0 1-11.337143-1.142857 56 56 0 0 1-46.857143-55.394285v-40.125715H183.017143A67.234286 67.234286 0 0 1 115.84 625.508571v-686.32A67.257143 67.257143 0 0 1 183.017143-128h657.942857a67.268571 67.268571 0 0 1 67.2 67.188571V625.508571a67.257143 67.257143 0 0 1-67.2 67.165715z m-511.325714 38.194286h112.068572l3.908571 0.537143h1.611429l-2.72 31.462857c-0.194286 2.285714-0.285714 4.217143-0.285715 6.08a69.52 69.52 0 0 0 58.537143 68.285714 67.428571 67.428571 0 0 0 9.234286 0.662857 69.462857 69.462857 0 0 0 69.382857-69.382857c0-1.851429-0.091429-3.851429-0.285714-6.091428l-2.754286-31.554286h118.011429v-92.662857l0.708571-3.622857v-37.177143h-367.428571V730.88z m520.411429-791.668571a9.142857 9.142857 0 0 0-9.142857-9.142858H183.005714a9.142857 9.142857 0 0 0-9.074285 9.142858V625.531429a9.142857 9.142857 0 0 0 9.074285 9.142857h88.685715v-39.097143a56 56 0 0 1 56-56h371.268571a56.057143 56.057143 0 0 1 56 56v39.04h85.977143a9.142857 9.142857 0 0 0 9.142857-9.142857v-686.262857z m-529.142857 124.697142h384.48a32.377143 32.377143 0 0 1 0 64.754286H320.891429a32.377143 32.377143 0 1 1 0-64.754286z m0 307.588572h384.48a32.377143 32.377143 0 0 1 0 64.754286H320.891429a32.377143 32.377143 0 1 1 0-64.754286z m0-153.794286h384.48a32.377143 32.377143 0 0 1 0 64.754286H320.891429a32.377143 32.377143 0 1 1 0-64.754286z"  horiz-adv-x="1024" />

    
    <glyph glyph-name="xieyi1" unicode="&#58933;" d="M857.368 763.456h-50.536v32.379c0 54.675-44.484 99.16-99.16 99.16h-526.02c-54.677 0-99.16-44.485-99.16-99.16v-690.427c0-54.654 44.483-99.137 99.16-99.137h50.536v-32.4c0-54.654 44.485-99.138 99.138-99.138h457.546l167.633 185.124V664.319c0.001 54.676-44.46 99.137-99.137 99.137zM181.652 73.053c-17.847 0-32.377 14.51-32.377 32.355V795.835c0 17.847 14.53 32.378 32.377 32.378h526.02c17.847 0 32.378-14.531 32.378-32.378v-32.379H331.327c-54.653 0-99.138-44.483-99.138-99.137v-591.266h-50.537z m117.319-99.159V664.319c0 17.846 14.51 32.356 32.356 32.356h526.042c17.848 0 32.356-14.51 32.356-32.356v-554.928h-73.636c-54.653 0-99.138-44.482-99.138-99.136v-68.74H331.327c-17.847 0.022-32.356 14.53-32.356 32.379z m484.762-5.341v41.725c0 17.847 14.509 32.354 32.355 32.354h34.737l-67.092-74.079zM403.851 510.727h367.265c18.448 0 33.38 14.954 33.38 33.38 0 18.425-14.954 33.379-33.38 33.379H403.851c-18.448 0-33.38-14.954-33.38-33.379-0.001-18.426 14.953-33.38 33.38-33.38z m0-200.322h367.265c18.448 0 33.38 14.954 33.38 33.38 0 18.425-14.954 33.379-33.38 33.379H403.851c-18.448 0-33.38-14.954-33.38-33.379-0.001-18.426 14.953-33.38 33.38-33.38z m200.322-133.563H403.851c-18.448 0-33.38-14.954-33.38-33.38 0-18.447 14.954-33.38 33.38-33.38h200.322c18.447 0 33.379 14.954 33.379 33.38 0.022 18.446-14.932 33.38-33.379 33.38z"  horiz-adv-x="1024" />

    
    <glyph glyph-name="wenjianjia" unicode="&#59007;" d="M891.345455 660.945455H481.745455V691.2C481.745455 740.072727 444.509091 779.636364 395.636364 779.636364H132.654545C83.781818 779.636364 44.218182 740.072727 44.218182 691.2V76.8c0-48.872727 39.563636-88.436364 88.436363-88.436364h761.018182c48.872727 0 88.436364 39.563636 88.436364 88.436364V574.836364c-2.327273 48.872727-41.890909 86.109091-90.763636 86.109091z m30.254545-584.145455c0-16.290909-13.963636-30.254545-30.254545-30.254545H132.654545c-16.290909 0-30.254545 13.963636-30.254545 30.254545V428.218182h819.2v-351.418182z m0 409.6H102.4V691.2c0 16.290909 13.963636 30.254545 30.254545 30.254545H395.636364c16.290909 0 30.254545-13.963636 30.254545-30.254545v-60.509091c0-16.290909 13.963636-30.254545 30.254546-30.254545H896c16.290909 0 30.254545-13.963636 30.254545-30.254546v-83.781818z"  horiz-adv-x="1024" />

    
    <glyph glyph-name="touxiang2" unicode="&#58987;" d="M899.2 48c80 89.6 124.8 208 124.8 336 0 281.6-230.4 512-512 512s-512-230.4-512-512c0-134.4 51.2-259.2 137.6-348.8 9.6 19.2 22.4 35.2 35.2 48 51.2 41.6 204.8 108.8 204.8 108.8l96-182.4 16 44.8-25.6 54.4 54.4 54.4 54.4-54.4-25.6-54.4 16-44.8 99.2 182.4s153.6-67.2 204.8-108.8c12.8-9.6 22.4-22.4 32-35.2z m-371.2 688c208 0 208-160 208-252.8s-83.2-259.2-208-259.2-208 169.6-208 259.2 0 252.8 208 252.8zM899.2 48c80 89.6 124.8 208 124.8 336 0 281.6-230.4 512-512 512s-512-230.4-512-512c0-134.4 51.2-259.2 137.6-348.8 9.6 19.2 22.4 35.2 35.2 48 51.2 41.6 204.8 108.8 204.8 108.8l96-182.4 16 44.8-25.6 54.4 54.4 54.4 54.4-54.4-25.6-54.4 16-44.8 99.2 182.4s153.6-67.2 204.8-108.8c12.8-9.6 22.4-22.4 32-35.2z m-371.2 688c208 0 208-160 208-252.8s-83.2-259.2-208-259.2-208 169.6-208 259.2 0 252.8 208 252.8z"  horiz-adv-x="1024" />

    
    <glyph glyph-name="diannao" unicode="&#58904;" d="M908 792h-792c-36 0-65.6-30.4-65.6-65.6v-528c0-36 30.4-65.6 65.6-65.6h329.6v-102.4h-168c-17.6 0-36-12-36-36v-24h528v24c0 17.6-12 36-36 36H577.6V132h329.6c36 0 65.6 30.4 65.6 65.6v528c1.6 36-28.8 66.4-64.8 66.4z m-432-612c0 17.6 12 36 36 36 17.6 0 36-12 36-36 0-17.6-12-36-36-36-17.6 6.4-36 17.6-36 36z m-378.4 77.6v456c0 17.6 6.4 30.4 30.4 30.4h768c24 0 30.4-12 30.4-36v-449.6c0-17.6-6.4-24-24-24H122.4c-12 0-24.8-0.8-24.8 23.2zM668.8 449.6H355.2c-15.2 0-28 12.8-28 28s12.8 28 28 28h314.4c15.2 0 28-12.8 28-28-0.8-15.2-12.8-28-28.8-28zM484 320.8V635.2c0 15.2 12.8 28 28 28s28-12.8 28-28v-314.4c0-15.2-12.8-28-28-28s-28 12.8-28 28z"  horiz-adv-x="1024" />

    
    <glyph glyph-name="drop" unicode="&#58899;" d="M1511.166467 865.647904L765.44511-128.102196 19.723752 865.647904z"  horiz-adv-x="1532" />

    
    <glyph glyph-name="wenjianxiazai" unicode="&#58946;" d="M952.224 640L640 896H153.6C102.4 896 64 838.4 64 787.2v-838.432C64-102.4 102.4-128 153.6-128h716.8c51.2 0 89.6 19.2 89.6 76.768V640h-7.776zM640 815.936L850.144 640H640V815.936z m256-822.368c0-25.6-19.2-57.568-44.768-57.568H160c-19.232 0-32 25.6-32 44.768v800C128 806.4 147.168 832 179.2 832H576v-256h320v-582.432zM576 288l96 96 44.768-38.4-204.8-204.8L307.2 345.6 352 384l96-96.032V512h128v-224zM256 128h512v-64H256v64z"  horiz-adv-x="1024" />

    
    <glyph glyph-name="tubiaobingzhuangtu" unicode="&#58945;" d="M486.244 801.865v-444.31c0-1.31 0.5-2.621 1.499-3.62 1.001-1.001 2.31-1.5 3.621-1.5h458.355c0-238.087-199.957-421.341-438.622-421.341-238.677 0-432.149 186.545-432.149 424.631 0 238.101 172.953 446.138 407.296 446.138zM542.422 829.954c238.665 0 435.385-183.253 435.385-421.34h-430.265c-1.31 0-2.621 0.5-3.62 1.499-1.001 1.001-1.5 2.31-1.5 3.621v416.22z"  horiz-adv-x="1024" />

    
    <glyph glyph-name="tianjiakehu" unicode="&#58958;" d="M461.778824 416.210824c75.941647 30.117647 129.852235 104.161882 129.852235 190.689882 0 113.152-92.039529 205.191529-205.19153 205.191529s-205.191529-92.039529-205.191529-205.191529c0-86.528 53.910588-160.572235 129.852235-190.689882C142.215529 381.289412 14.878118 231.424 14.878118 52.344471c0-43.550118 30.539294-57.976471 55.085176-69.556706l1.41553-0.587294c98.951529-34.936471 242.115765-44.257882 311.100235-44.257883 75.218824 0 222.464 12.212706 320.286117 45.989647 36.653176 14.064941 55.235765 37.074824 55.235765 68.427294 0 179.064471-127.337412 328.929882-296.222117 363.851295zM211.365647 606.900706c0 96.527059 78.546824 175.073882 175.073882 175.073882s175.073882-78.546824 175.073883-175.073882c0-96.542118-78.546824-175.088941-175.073883-175.088941s-175.073882 78.546824-175.073882 175.088941z m481.084235-594.688c-93.184-32.180706-239.570824-44.167529-309.970823-44.16753-66.906353 0-205.266824 8.914824-300.348235 42.300236-28.295529 13.432471-37.135059 21.082353-37.135059 41.999059 0 188.265412 153.178353 341.443765 341.443764 341.443764s341.443765-153.178353 341.443765-341.443764c0-12.348235-4.096-28.099765-35.433412-40.131765zM978.823529 660.073412H828.235294v150.588235a15.058824 15.058824 0 0 1-30.117647 0v-150.588235H647.529412a15.058824 15.058824 0 0 1 0-30.117647h150.588235v-150.588236a15.058824 15.058824 0 0 1 30.117647 0v150.588236h150.588235a15.058824 15.058824 0 0 1 0 30.117647z"  horiz-adv-x="1024" />

    
    <glyph glyph-name="zhishufenxiyanpan" unicode="&#58884;" d="M708.096 670.72l112.64-111.616-240.128-240.128-196.096 196.096-363.008-363.008 69.632-69.632 293.376 294.4 196.096-196.096 309.76 308.736 112.128-112.64V670.72zM708.096 670.72l112.64-111.616-240.128-240.128-196.096 196.096-363.008-363.008 69.632-69.632 293.376 294.4 196.096-196.096 309.76 308.736 112.128-112.64V670.72z"  horiz-adv-x="1024" />

    
    <glyph glyph-name="pipei" unicode="&#58893;" d="M512 896C229.248 896 0 666.752 0 384c0-80.96 19.328-157.248 52.8-225.344 0 0 18.24-21.696 41.216-9.664s15.68 35.264 15.68 35.264C79.424 244.416 62.016 312.128 62.016 384H256c0-130.496 97.92-236.864 224-252.736v-193.6c-112.32 7.872-213.312 56.384-287.872 131.456 0 0-18.496 14.528-41.152 0.96-19.968-12.032-7.168-41.28-7.168-41.28C236.928-67.776 367.296-128 512-128c282.752 0 512 229.248 512 512S794.752 896 512 896z m444.864-448H758.912C732.992 548.032 648.64 623.552 544 636.8V830.4C755.968 815.488 927.104 654.656 956.864 448zM544 384h160c0-95.104-69.248-173.504-160-188.736V384z m0 64V572.8c69.184-11.712 125.248-60.16 148.224-124.8H544z m-64 0H331.776c22.976 64.64 79.04 113.088 148.224 124.8V448z m-412.864 0C96.896 654.656 267.968 815.488 480 830.4v-193.6C375.424 623.552 290.944 548.032 265.088 448H67.136zM320 384h160v-188.736C389.312 210.496 320 288.896 320 384z m224-446.4V131.2C670.144 147.136 768 253.504 768 384h193.984c0-236.608-184.512-430.016-417.984-446.4z"  horiz-adv-x="1024" />

    
    <glyph glyph-name="shebei" unicode="&#58880;" d="M762.288 755.664a31.232 31.232 0 1 1-34.976-51.76 385.136 385.136 0 0 0 169.84-319.44c0-201.888-156.128-367.872-353.968-383.84V248.112c49.728 13.728 86.4 59.264 86.4 113.312 0 64.864-52.784 117.648-117.648 117.648-64.88 0-117.664-52.768-117.664-117.648 0-54.048 36.672-99.584 86.416-113.312v-247.504C282.88 16.576 126.736 182.56 126.736 384.448a385.12 385.12 0 0 0 169.856 319.44 31.232 31.232 0 1 1-34.96 51.76 447.488 447.488 0 0 1-197.36-371.2c0-246.864 200.832-447.68 447.68-447.68s447.68 200.832 447.68 447.68A447.52 447.52 0 0 1 762.288 755.664z m-305.52-394.24a55.248 55.248 0 0 0 55.184 55.184c30.416 0 55.168-24.752 55.168-55.184s-24.752-55.184-55.168-55.184a55.248 55.248 0 0 0-55.184 55.184zM389.248 155.344a31.248 31.248 0 0 1 24.32 57.536 162.624 162.624 0 0 0-99.44 150.032c0 62.928 36.848 120.848 93.856 147.536a31.232 31.232 0 0 1-26.496 56.576c-78.864-36.928-129.84-117.056-129.84-204.112a224.976 224.976 0 0 1 137.6-207.568zM610.32 212.88a31.248 31.248 0 0 1 24.352-57.536 224.96 224.96 0 0 1 137.584 207.568c0 87.056-50.976 167.168-129.824 204.112a31.216 31.216 0 1 1-26.512-56.576 163.584 163.584 0 0 0 93.856-147.536 162.64 162.64 0 0 0-99.456-150.032z"  horiz-adv-x="1024" />

    
    <glyph glyph-name="nidongde" unicode="&#58967;" d="M344.937344 806.810216c1.426289-2.148269 2.153318-4.483345 2.153318-6.985031 0-2.519357-1.075397-4.483345-3.223667-5.909634-14.336101-9.317582-30.451908-31.883246-48.35247-67.691944-17.913184-35.826368-38.678947-71.991007-62.320008-108.524209v-578.076323c0-25.069875-1.075397-50.505788-3.223666-76.292595s-4.299063-42.442836-6.447333-49.965565c-2.150794-7.520205-4.483345-11.28157-6.985031-11.28157-2.519357 0-4.834237 2.150794-6.987555 6.449857l-39.756868 69.840213c8.595602 17.196253 14.674371 35.998028 18.266601 56.412898 3.577083 20.417395 5.371936 57.483246 5.371935 111.212701V558.605581c-51.576136-71.63759-113.191835-137.183789-184.811754-196.636071l-8.595602 11.824317c93.832166 102.430293 164.212602 195.373868 211.138783 278.830727 46.90851 83.441712 70.380436 153.822148 70.380436 211.138783 0 7.151642-0.368563 13.967538-1.077921 20.41487l10.743871 4.299063 53.726931-81.667054z m171.919613-473.851178c1.423765-2.872774 2.150794-6.275673 2.150794-10.206173 0-3.945646-3.407948-8.595602-10.208698-13.967538-6.815896-5.37446-13.800927-12.72553-20.952568-22.033015-73.785859-103.147224-138.256661-178.735509-193.407357-226.716891l-9.670999 10.746395c126.793334 153.281925 188.035421 259.65534 183.738882 319.122769l12.894665 5.371936 35.455281-62.317483z m353.507701 313.753357c2.852579-2.148269 4.299063-4.667626 4.299064-7.520205 0-2.870249-1.799901-5.740499-5.374461-8.595602-28.65958-20.783434-68.063031-72.35957-118.192683-154.725885l-13.967537 6.447333 53.724405 126.790809c-185.533734-27.935075-289.75888-47.648161-312.675436-59.096341l-24.713933 19.341998c-40.125431-76.658633-83.456858-144.353101-130.011952-203.078356l-12.894665 8.595602c60.876048 97.40925 107.26453 188.035421 139.147776 271.845696 31.865575 83.810275 47.814772 150.058259 47.814772 198.781816 0 17.191204-2.150794 30.790178-6.447333 40.829741l8.593078 9.670999 67.691944-68.76734c2.852579-2.870249 4.296539-5.558742 4.296538-8.057904 0-2.519357-1.072872-4.836762-3.223666-6.985031-10.743871-10.743871-20.41487-27.233291-29.010472-49.427867-22.212247-55.872675-47.648161-113.545252-76.287546-172.992486l326.648023 55.872675 31.161266 44.055932 49.422818-42.985584z m-299.783295-108.524208l65.543674-51.576137c3.577083-2.870249 5.371936-6.093916 5.371936-9.670999 0-3.59223-0.368563-6.093916-1.077922-7.520205-7.891293-13.61917-11.819268-55.168366-11.819268-124.640016v-250.357953c0-83.088295-3.054531-137.885573-9.1333-164.396884-6.09644-26.491115-12.356967-39.754344-18.801775-39.754343-3.594754 0-7.171837 2.516833-10.746396 7.520205-35.104388 46.572764-80.233192 93.481274-135.386412 140.760872l7.520205 12.89214 117.119811-67.689419c6.449857 15.76239 9.670999 64.11486 9.670999 145.054886v211.679006c0 95.980436-8.595602 158.300444-25.786806 186.960024l7.525254 10.738823z m338.464767-336.313973c1.426289-53.020097-1.441436-79.513736-8.593078-79.513737-2.153318 0-5.743023 2.855103-10.746396 8.598127-58.020945 72.341899-127.159373 142.904092-207.374894 211.676481l7.520205 10.743872 219.194163-151.504743zM989.630214 619.850192a1024.631101 1024.631101 0 0 0 2.150794-65.543674c0-61.615699-5.371936-110.321586-16.118332-146.132807-10.743871-35.823844-19.341998-53.721881-25.786806-53.721882-2.150794 0-3.945646 1.779706-5.37446 5.371936l-23.636012 54.799803c12.889616 15.747244 22.916557 35.992979 30.085869 60.706912 7.151642 24.713934 14.320955 72.879598 21.490267 144.519712h17.18868z m207.377418-27.935075c5.003372-15.042935 7.520205-29.012997 7.520206-41.905138 0-12.894665-0.906262-19.341998-2.685968-19.341998-1.797377 0-4.836762 1.426289-9.133301 4.299064l-97.775288 75.214673v-567.329928c0-94.556671-5.018519-141.836269-15.042935-141.836269-0.72198 0-2.519357 2.519357-5.371936 7.520205l-41.907661 80.589133c16.469224 38.678947 24.713934 84.163692 24.713933 136.461809V706.884134c0 63.746297-7.520205 116.397831-22.56314 157.949551l11.819269 6.447333 60.171738-50.50074c4.299063-3.59223 6.447333-6.280722 6.447333-8.057903 0-1.797377-0.72198-4.483345-2.14827-8.057904-10.743871-21.490267-16.118332-49.79643-16.118331-84.885672v-91.33048l102.074351-36.533202z m579.151721-592.046386c2.855103-2.857627 4.299063-4.834237 4.299063-5.909634s-3.223666-1.963988-9.670999-2.685968c-285.813233-13.598974-482.815344-29.714782-590.970989-48.35247l-44.053407 37.608598 290.112297 19.339474v83.810275c-95.998107-10.044611-152.946179-18.975959-170.844216-26.864727l-32.236664 34.382408 203.078356 18.264076v80.589133l-131.087349-12.889616c0.701785-14.34115 0.164086-26.160418-1.615619-35.462854-1.794853-9.315058-3.407948-13.965013-4.836762-13.965013-1.441436 0-3.59223 1.779706-6.447333 5.369411l-33.309535 48.349946c6.449857 12.172685 8.951543 30.790178 7.520205 55.8752l-4.299063 90.257607c-1.44396 30.085869-8.242185 63.026842-20.414871 98.855735l11.819269 5.369411 29.010472-45.123755 153.653012 12.889616v70.91561c-136.830372-10.743871-220.640647-20.783434-251.430825-30.085869l-39.756868 29.010472 291.187693 27.9376V558.603057c-49.427867-5.743023-112.116438-12.190356-188.03542-19.341998l-1.075397 11.819268c58.023469 8.595602 97.40925 15.042935 118.195208 19.339474l-30.08587 41.905137c5.725353 12.894665 7.520205 32.587555 5.371936 59.096342-73.063879-7.169313-118.914663-14.336101-137.534681-21.490267l-35.457805 29.010472 171.922138 19.341998-3.223666 49.427867c-2.148269 32.234139-11.819268 61.598028-29.010473 88.106814l8.595602 11.819268 51.576137-30.085869c5.003372-2.870249 7.520205-5.740499 7.520205-8.595602 0-2.870249-0.368563-6.09644-1.077921-9.670999-2.870249-14.338625-3.59223-32.605226-2.14827-54.799803l3.223666-42.980534 146.130283 15.042934c5.725353 31.512159 8.595602 61.247135 8.595602 89.184736 0 27.935075-2.519357 47.981383-7.520205 60.169214l9.670999 5.371935 50.50074-48.35247c4.296539-4.299063 6.449857-7.353594 6.449857-9.1333 0-1.794853-1.44396-4.129928-4.299063-6.985031-7.891293-10.039562-17.915709-39.050035-30.08587-87.033942 70.19363 9.302436 123.196056 21.121704 159.024949 35.457805l31.158741-31.161266c3.577083-2.870249 5.371936-5.018519 5.371936-6.447332 0-1.44396-2.519357-2.519357-7.520205-3.223667l-194.482753-20.41487-22.56314-91.33048c60.876048 13.598974 92.037314 24.713934 93.481274 33.309535l8.593078 3.223666 41.907662-39.756868c3.577083-3.59223 5.371936-6.09644 5.371935-7.520205 0-1.44396-3.59223-2.150794-10.743871-2.150794-7.171837 0-36.364067-4.129928-87.57164-12.356966-51.22272-8.24471-85.791934-13.432364-103.687447-15.580633v-61.247136c132.516162 12.172685 219.900996 26.49364 262.174697 42.980535l39.756868-32.239188c5.000848-3.59223 7.520205-5.740499 7.520205-6.447332 0-0.72198-2.519357-1.44396-7.520205-2.150794l-301.931565-29.010473v-70.913085l143.982014 11.821793 27.9376 37.60355 39.756868-33.304487c5.000848-3.594754 7.520205-6.278197 7.520205-8.057904 0-1.794853-1.44396-3.410472-4.299063-4.836761-12.889616-6.444808-20.780909-19.708037-23.636013-39.754344l-16.120856-118.190159 22.56314-26.864727c3.577083-3.594754 5.371936-6.278197 5.371936-8.057904 0-1.794853-2.872774-3.057056-8.595602-3.75884l-194.482753-16.120856V112.692003c70.196154 7.154166 129.643388 18.266601 178.364421 33.309535l37.606075-30.085869c2.150794-2.150794 3.221142-3.945646 3.221142-5.37446 0-1.44396-1.44396-2.150794-4.299064-2.150794l-214.897623-20.417395v-84.883147c141.836269 10.042087 232.442244 21.85883 271.84822 35.460329l41.915235-38.681471z m-350.284035 310.529691V371.645558l-145.05741-11.821793 4.299063-63.39288 140.758347 13.967537z m0-93.481274v66.621596c-40.829741-3.594754-77.362943-9.673523-109.599605-18.264077l-29.010473 23.636012 5.371936-87.036465 133.238142 15.042934z m79.511212 473.848654l-139.68295-15.042934c2.852579-42.97801 3.577083-77.009526 2.148269-102.076876 78.789232 14.320955 118.902041 21.84116 120.343477 22.563139l17.191204 94.556671z m113.896144-301.931565l-156.879203-12.894665v-61.244611c47.279598 5.727877 77.362943 12.526102 90.257608 20.41487l30.085869-27.935075c2.855103-2.870249 4.299063-4.670151 4.299063-5.37446 0-0.719456-1.797377-1.438911-5.371935-2.14827l-119.26808-11.821792v-66.619071l140.760871 15.042934 16.115807 152.58014zM2139.338054 629.521191l42.980534-35.457805c3.577083-2.870249 5.371936-5.556217 5.371936-8.057903 0-2.519357-3.054531-6.278197-9.133301-11.28157-6.093916-5.018519-10.577261-12.892141-13.429839-23.638537-2.872774-10.746396-4.667626-25.78933-5.371936-45.128804L2146.858259 176.087408c-1.441436-41.554245-4.294014-73.063879-8.593078-94.556671-4.299063-21.490267-7.891293-32.236663-10.743871-32.236663-2.872774 0-6.09644 2.519357-9.670999 7.520205l-32.236663 45.128804-168.695948-19.339474c0.704309-26.491115-0.368563-46.555093-3.221141-60.171738-2.872774-13.601499-5.740499-20.419919-8.595602-20.41992-2.870249 0-6.093916 2.872774-9.670999 8.598127l-37.60355 67.686895c7.871098 10.74892 13.061276 21.84116 15.580633 33.309535 2.499162 11.448181 3.390277 31.512159 2.683443 60.171739l-4.299063 309.45177c-1.441436 47.279598-8.24471 101.001479-20.41487 161.173217l15.042934 5.371936 37.606075-83.810275 31.161266 4.299063c20.770812 61.598028 35.995503 110.303915 45.666502 146.130283 9.670999 35.811222 14.505236 63.562016 14.505236 83.272577 0 19.69289-1.794853 37.0709-5.371935 52.113835l12.894665 7.520205 52.646484-66.619071c4.299063-5.021043 6.447333-8.96669 6.447333-11.819269 0-2.870249-2.148269-6.09644-6.447333-9.670998-7.891293-6.447333-38.330579-71.991007-91.333004-196.631023l149.353949 19.341998 25.789331 37.618696z m-20.414871-73.066404l-208.450291-25.786806 3.223667-183.738881c64.470802 9.307484 108.875101 19.341998 133.233093 30.085869l27.9376-30.085869c4.299063-4.294014 6.447333-7.35107 6.447332-9.130776 0-1.794853-2.519357-3.057056-7.520205-3.758841l-160.09782-19.339473 3.221141-199.854689c85.239089 10.024416 136.090721 18.97091 152.577616 26.862203l21.490267-17.193729c10.74892 16.469224 16.822641 45.830589 18.266601 88.10429l9.670999 343.836702z m501.786254 46.204201c2.855103-2.870249 4.299063-5.558742 4.299063-8.057903 0-2.519357-3.221142-6.815896-9.670999-12.894666-6.447333-6.093916-11.819268-13.967538-16.115807-23.638536-4.299063-9.670999-7.520205-25.973612-9.670999-48.890169-7.891293-103.152273-17.024593-191.630175-27.399901-265.400887-10.392979-73.785859-21.492792-134.684627-33.309536-182.660961-11.819268-47.983907-23.100838-83.97941-33.847234-107.983986-10.743871-23.991953-17.375486-38.143773-19.877172-42.442836-2.519357-4.296539-5.018519-6.447333-7.520205-6.447332-2.519357 0-5.909634 2.870249-10.208697 8.593077-41.551721 56.59718-87.036466 110.675002-136.461809 162.246091l11.821793 12.89214 128.939079-92.403352c42.25603 95.258456 70.544522 284.366749 84.885672 567.329928L2280.096401 526.368918c-35.106913-85.254235-64.839365-146.130283-89.182211-182.666009l-16.118332 10.74892C2265.757775 558.605581 2311.257667 716.906025 2311.257667 829.37588c0 19.341998-1.441436 36.164639-4.296539 50.50074l12.889617 6.447332 60.171738-74.139276c2.855103-3.59223 4.299063-6.447333 4.299063-8.595602s-1.794853-5.371936-5.371935-9.670999c-10.743871-13.616645-19.339473-31.883246-25.786806-54.799803-15.764915-53.724406-35.104388-112.116438-58.020945-175.140755l244.983493 35.457805 34.384932 46.201676 46.199152-42.97801z m-194.482753-296.559629c-0.72198-21.490267-3.761365-40.829741-9.133301-58.020945s-9.670999-25.786806-12.89214-25.786806-6.631614 2.855103-10.208698 8.593078l-116.044414 199.857213 10.746396 8.593078 137.532157-133.235618zM2775.435322-104.356415c49.425343 38.681471 78.976038 68.413924 88.647037 89.182211 9.66595 20.783434 14.502712 41.200828 14.502712 61.247136 0 16.48437-9.504388 24.713934-28.47025 24.713933-18.988581 0-35.291194 5.187654-48.890169 15.580633-13.61917 10.372784-20.41487 22.916557-20.41487 37.60355 0 14.674371 5.187654 27.932551 15.578109 39.754344 10.372784 11.824317 24.529652 17.726378 42.442836 17.726378 25.06735 0 47.448733-11.10991 67.159294-33.307011 19.69289-22.212247 29.548171-49.422818 29.548171-81.662006s-12.541248-66.247983-37.606075-102.0794c-25.085021-35.811222-59.818322-66.621596-104.225145-92.403353l-18.27165 23.643585zM3632.882595 619.850192a1024.631101 1024.631101 0 0 0 2.150794-65.543674c0-61.615699-5.371936-110.321586-16.118331-146.132807-10.746396-35.823844-19.339473-53.721881-25.789331-53.721882-2.150794 0-3.945646 1.779706-5.371935 5.371936l-23.638537 54.799803c12.889616 15.747244 22.916557 35.992979 30.085869 60.706912 7.154166 24.713934 14.323479 72.879598 21.492792 144.519712h17.188679z m207.374894-27.935075c5.000848-15.042935 7.520205-29.012997 7.520206-41.905138 0-12.894665-0.906262-19.341998-2.683444-19.341998-1.797377 0-4.834237 1.426289-9.1333 4.299064l-97.775289 75.214673v-567.329928c0-94.556671-5.018519-141.836269-15.042934-141.836269-0.72198 0-2.516833 2.519357-5.371936 7.520205l-41.907662 80.589133c16.4667 38.678947 24.711409 84.163692 24.711409 136.461809V706.884134c0 63.746297-7.520205 116.397831-22.56314 157.949551l11.821793 6.447333 60.171739-50.50074c4.296539-3.59223 6.444808-6.280722 6.444808-8.057903 0-1.797377-0.716931-4.483345-2.14827-8.057904-10.746396-21.490267-16.118332-49.79643-16.118331-84.885672v-91.33048l102.074351-36.533202z m579.149197-592.046386c2.855103-2.857627 4.299063-4.834237 4.299063-5.909634s-3.221142-1.963988-9.673523-2.685968c-285.813233-13.598974-482.812819-29.714782-590.968465-48.35247l-44.053407 37.608598 290.112297 19.339474v83.810275c-95.998107-10.044611-152.946179-18.975959-170.844217-26.864727l-32.239187 34.382408 203.078355 18.264076v80.589133l-131.089873-12.889616c0.701785-14.34115 0.164086-26.160418-1.61562-35.462854-1.794853-9.315058-3.407948-13.965013-4.831713-13.965013-1.441436 0-3.594754 1.779706-6.449857 5.369411l-33.309535 48.349946c6.452381 12.172685 8.951543 30.790178 7.522729 55.8752l-4.299063 90.257607c-1.44396 30.085869-8.24471 63.026842-20.41487 98.855735l11.821793 5.369411 29.010472-45.123755 153.650488 12.889616v70.91561c-136.830372-10.743871-220.640647-20.783434-251.43335-30.085869l-39.754343 29.010472 291.187693 27.9376V558.603057c-49.425343-5.743023-112.116438-12.190356-188.035421-19.341998l-1.075396 11.819268c58.020945 8.595602 97.40925 15.042935 118.192683 19.339474l-30.085869 41.905137c5.725353 12.894665 7.520205 32.587555 5.37446 59.096342-73.063879-7.169313-118.917188-14.336101-137.534681-21.490267L3800.495572 678.941485l171.922138 19.341998-3.223666 49.427867c-2.150794 32.234139-11.819268 61.598028-29.010472 88.106814l8.595602 11.819268 51.576136-30.085869c5.003372-2.870249 7.520205-5.740499 7.520205-8.595602 0-2.870249-0.368563-6.09644-1.075397-9.670999-2.875298-14.338625-3.594754-32.605226-2.150793-54.799803l3.221141-42.980534 146.132808 15.042934c5.725353 31.512159 8.593078 61.247135 8.593078 89.184736 0 27.935075-2.516833 47.981383-7.520206 60.169214l9.668475 5.371935 50.503264-48.35247c4.294014-4.299063 6.447333-7.353594 6.447332-9.1333 0-1.794853-1.441436-4.129928-4.296538-6.985031-7.891293-10.039562-17.918233-39.050035-30.08587-87.033942 70.19363 9.302436 123.196056 21.121704 159.022424 35.457805l31.163791-31.161266c3.574559-2.870249 5.371936-5.018519 5.371936-6.447332 0-1.44396-2.516833-2.519357-7.520206-3.223667l-194.482753-20.41487-22.563139-91.33048c60.876048 13.598974 92.037314 24.713934 93.476225 33.309535l8.598126 3.223666 41.907662-39.756868c3.574559-3.59223 5.371936-6.09644 5.371936-7.520205 0-1.44396-3.59223-2.150794-10.74892-2.150794-7.169313 0-36.359018-4.129928-87.566591-12.356966-51.22272-8.24471-85.789409-13.432364-103.687447-15.580633v-61.247136c132.516162 12.172685 219.898472 26.49364 262.174696 42.980535l39.756868-32.239188c4.998324-3.59223 7.520205-5.740499 7.520206-6.447332 0-0.72198-2.516833-1.44396-7.520206-2.150794l-301.931564-29.010473v-70.913085l143.979489 11.821793 27.9376 37.60355 39.756868-33.304487c4.998324-3.594754 7.520205-6.278197 7.520205-8.057904 0-1.794853-1.441436-3.410472-4.296539-4.836761-12.889616-6.444808-20.780909-19.708037-23.636012-39.754344l-16.120856-118.190159 22.565664-26.864727c3.574559-3.594754 5.371936-6.278197 5.371936-8.057904 0-1.794853-2.872774-3.057056-8.595602-3.75884l-194.482753-16.120856V112.692003c70.198679 7.154166 129.643388 18.266601 178.364421 33.309535l37.60355-30.085869c2.153318-2.150794 3.221142-3.945646 3.221142-5.37446 0-1.44396-1.441436-2.150794-4.296539-2.150794l-214.897623-20.417395v-84.883147c141.836269 10.042087 232.442244 21.85883 271.84822 35.460329l41.907662-38.681471zM4069.122651 310.398422V371.645558l-145.057411-11.821793 4.299063-63.39288 140.758348 13.967537z m0-93.481274v66.621596c-40.832265-3.594754-77.362943-9.673523-109.597081-18.264077l-29.010473 23.636012 5.369411-87.036465 133.238143 15.042934z m79.511212 473.848654l-139.682951-15.042934c2.852579-42.97801 3.577083-77.009526 2.14827-102.076876 78.794281 14.320955 118.904566 21.84116 120.346001 22.563139l17.18868 94.556671z m113.896144-301.931565l-156.879203-12.894665v-61.244611c47.279598 5.727877 77.362943 12.526102 90.260132 20.41487l30.085869-27.935075c2.855103-2.870249 4.296539-4.670151 4.296539-5.37446 0-0.719456-1.799901-1.438911-5.37446-2.14827l-119.26808-11.821792v-66.619071l140.760871 15.042934 16.118332 152.58014zM4750.353772 806.810216c1.421241-2.148269 2.150794-4.483345 2.150794-6.985031 0-2.519357-1.075397-4.483345-3.221142-5.909634-14.34115-9.317582-30.454433-31.883246-48.35247-67.691944-17.913184-35.826368-38.678947-71.991007-62.322533-108.524209v-578.076323c0-25.069875-1.075397-50.505788-3.218617-76.292595-2.153318-25.786806-4.296539-42.442836-6.449857-49.965565-2.150794-7.520205-4.478296-11.28157-6.987556-11.28157-2.516833 0-4.831713 2.150794-6.985031 6.449857l-39.754343 69.840213c8.593078 17.196253 14.674371 35.998028 18.261552 56.412898 3.577083 20.417395 5.37446 57.483246 5.37446 111.212701V558.605581c-51.578661-71.63759-113.191835-137.183789-184.814279-196.636071l-8.593078 11.824317c93.834691 102.430293 164.215127 195.373868 211.141308 278.830727 46.90851 83.441712 70.377911 153.822148 70.377911 211.138783 0 7.151642-0.368563 13.967538-1.075396 20.41487l10.743871 4.299063 53.724406-81.667054z m171.91204-473.851178c1.428814-2.872774 2.150794-6.275673 2.150794-10.206173 0-3.945646-3.407948-8.595602-10.206173-13.967538-6.815896-5.37446-13.800927-12.72553-20.955093-22.033015-73.785859-103.147224-138.256661-178.735509-193.407357-226.716891l-9.66595 10.746395c126.788285 153.281925 188.030372 259.65534 183.736358 319.122769l12.892141 5.371936 35.45528-62.317483z m353.510226 313.753357c2.852579-2.148269 4.296539-4.667626 4.296539-7.520205 0-2.870249-1.797377-5.740499-5.371936-8.595602-28.662104-20.783434-68.065556-72.35957-118.195208-154.725885l-13.967537 6.447333 53.724406 126.790809c-185.533734-27.935075-289.75888-47.648161-312.675437-59.096341l-24.713933 19.341998c-40.127956-76.658633-83.456858-144.353101-130.014476-203.078356l-12.889617 8.595602c60.873523 97.40925 107.262006 188.035421 139.145252 271.845696 31.865575 83.810275 47.812247 150.058259 47.812248 198.781816 0 17.191204-2.148269 30.790178-6.447333 40.829741l8.593078 9.670999 67.691943-68.76734c2.855103-2.870249 4.296539-5.558742 4.296539-8.057904 0-2.519357-1.072872-4.836762-3.221142-6.985031-10.746396-10.743871-20.417395-27.233291-29.007948-49.427867-22.214772-55.872675-47.648161-113.545252-76.292594-172.992486l326.648023 55.872675 31.161266 44.055932 49.427867-42.985584z m-299.783296-108.524208l65.54115-51.576137c3.577083-2.870249 5.37446-6.093916 5.37446-9.670999 0-3.59223-0.368563-6.093916-1.075397-7.520205-7.891293-13.61917-11.819268-55.168366-11.819268-124.640016v-250.357953c0-83.088295-3.05958-137.885573-9.1333-164.396884-6.09644-26.491115-12.359491-39.754344-18.801775-39.754343-3.594754 0-7.169313 2.516833-10.746396 7.520205-35.106913 46.572764-80.235716 93.481274-135.386412 140.760872l7.520205 12.89214 117.122335-67.689419c6.449857 15.76239 9.670999 64.11486 9.670999 145.054886v211.679006c0 95.980436-8.595602 158.300444-25.78933 186.960024l7.522729 10.738823z m338.467292-336.313973c1.423765-53.020097-1.44396-79.513736-8.593078-79.513737-2.153318 0-5.743023 2.855103-10.74892 8.598127-58.020945 72.341899-127.156848 142.904092-207.374894 211.676481l7.522729 10.743872 219.194163-151.504743zM5663.668672 629.521191l42.97801-35.457805c3.574559-2.870249 5.37446-5.556217 5.37446-8.057903 0-2.519357-3.057056-6.278197-9.133301-11.28157-6.093916-5.018519-10.574736-12.892141-13.429839-23.638537-2.872774-10.746396-4.670151-25.78933-5.37446-45.128804l-12.892141-329.86664c-1.441436-41.554245-4.296539-73.066404-8.590553-94.556671-4.299063-21.490267-7.893817-32.239187-10.74892-32.239187-2.872774 0-6.09644 2.519357-9.670999 7.522729l-32.236663 45.128804-168.693423-19.341998c0.704309-26.491115-0.368563-46.552569-3.218617-60.171738-2.875298-13.598974-5.743023-20.417395-8.598127-20.417395-2.870249 0-6.093916 2.875298-9.668474 8.598126l-37.606075 67.689419c7.873622 10.743871 13.066325 21.838635 15.583158 33.307012 2.499162 11.448181 3.390277 31.512159 2.683443 60.171738l-4.296538 309.45177c-1.441436 47.279598-8.24471 101.001479-20.414871 161.173218l15.042935 5.371936 37.60355-83.810276 31.161266 4.299064c20.770812 61.598028 35.998028 110.303915 45.666502 146.130283 9.670999 35.811222 14.505236 63.562016 14.505236 83.272576 0 19.69289-1.794853 37.0709-5.371935 52.113835l12.892141 7.520205 52.646484-66.619071c4.299063-5.021043 6.449857-8.96669 6.449857-11.819268 0-2.870249-2.150794-6.09644-6.449857-9.670999-7.888768-6.447333-38.333103-71.991007-91.335529-196.631023l149.353949 19.341998 25.789331 37.616172z m-20.414871-73.066404l-208.45029-25.786806 3.221141-183.738881c64.468277 9.307484 108.877625 19.341998 133.235618 30.085869l27.935076-30.085869c4.299063-4.294014 6.447333-7.35107 6.447332-9.130776 0-1.794853-2.516833-3.057056-7.520205-3.758841l-160.100345-19.339473 3.221142-199.854689c85.236564 10.024416 136.090721 18.97091 152.575091 26.862203l21.492792-17.193729c10.743871 16.469224 16.822641 45.830589 18.266601 88.10429l9.676047 343.836702z m501.78373 46.204201c2.852579-2.870249 4.296539-5.558742 4.296539-8.057903 0-2.519357-3.221142-6.815896-9.668475-12.894666-6.449857-6.093916-11.821793-13.967538-16.118331-23.638536-4.299063-9.670999-7.520205-25.973612-9.670999-48.890169-7.891293-103.152273-17.022069-191.630175-27.399902-265.400887-10.38793-73.785859-21.487743-134.684627-33.304486-182.660961-11.821793-47.983907-23.100838-83.97941-33.84471-107.983986-10.746396-23.991953-17.37801-38.143773-19.879696-42.442836-2.516833-4.296539-5.018519-6.447333-7.520205-6.447332-2.519357 0-5.912159 2.870249-10.211222 8.593077-41.549196 56.59718-87.033941 110.675002-136.459284 162.246091l11.821792 12.89214 128.936555-92.403352c42.258554 95.258456 70.547047 284.366749 84.885672 567.329928l-266.476284-36.533202c-35.104388-85.254235-64.841889-146.130283-89.182211-182.663485l-16.118332 10.746396c90.959393 204.153752 136.461809 362.454196 136.461809 474.924051 0 19.341998-1.44396 36.164639-4.296539 50.500739l12.892141 6.447333 60.171738-74.139276c2.855103-3.59223 4.296539-6.447333 4.296539-8.595602s-1.794853-5.371936-5.371936-9.670999c-10.746396-13.616645-19.339473-31.883246-25.78933-54.799803-15.76239-53.724406-35.104388-112.116438-58.020945-175.140755l244.986017 35.457805 34.382409 46.201676 46.201676-42.975486z m-194.482753-296.559629c-0.72198-21.490267-3.75884-40.829741-9.133301-58.020945-5.371936-17.193728-9.668475-25.786806-12.889616-25.786806-3.223666 0-6.631614 2.855103-10.208698 8.593078l-116.049462 199.857213 10.751445 8.593078 137.529632-133.235618z"  horiz-adv-x="6149" />

    
    </font>
</defs>
</svg>
